<svg width="15" height="13" viewBox="0 0 15 13" fill="none" xmlns="http://www.w3.org/2000/svg">
<path d="M0.239778 7.08284L5.6568 12.5C5.81143 12.6546 6.01753 12.7395 6.23728 12.7395C6.45728 12.7395 6.66325 12.6545 6.81788 12.5L7.30971 12.008C7.46422 11.8537 7.54934 11.6474 7.54934 11.4276C7.54934 11.2078 7.46422 10.9946 7.30971 10.8402L4.1495 7.67308H14.1896C14.6423 7.67308 15 7.31869 15 6.86589V6.17041C15 5.71761 14.6423 5.32749 14.1896 5.32749H4.11364L7.30959 2.14264C7.4641 1.98801 7.54922 1.7874 7.54922 1.56752C7.54922 1.34789 7.4641 1.14435 7.30959 0.989842L6.81776 0.499481C6.66313 0.344849 6.45716 0.260581 6.23716 0.260581C6.0174 0.260581 5.81131 0.345945 5.65668 0.500578L0.239655 5.91761C0.0846577 6.07273 -0.000585556 6.2798 2.47955e-05 6.49992C-0.000463486 6.72077 0.0846577 6.92796 0.239778 7.08284Z" fill="#2D2D2D"/>
</svg>
