<svg width="24" height="24" viewBox="0 0 24 24" fill="none" xmlns="http://www.w3.org/2000/svg">
<g clip-path="url(#clip0)">
<path d="M23.0629 6.61196C23.5806 6.61196 24.0003 6.1923 24.0003 5.6746V4.69037C24.0003 2.10409 21.8961 0 19.3099 0C19.3099 0 4.61635 0.0022028 4.58013 0.00646779C3.34332 0.0496801 2.15527 0.580414 1.29889 1.47775C0.421102 2.39749 -0.0365175 3.59375 0.00655428 4.85239C0.0047733 4.87625 0.00383593 18.3723 0.00383593 18.3723C0.00383593 21.4754 2.52843 24 5.63156 24H19.3099C21.8962 24 24.0003 21.8959 24.0003 19.3096V12.1928C24.0003 9.60654 21.8962 7.50245 19.3099 7.50245H4.69059C3.18561 7.50245 1.95177 6.32616 1.8816 4.8245C1.84594 4.06093 2.12063 3.33204 2.65502 2.77206C3.19714 2.20402 3.95851 1.87828 4.74384 1.87828C4.77153 1.87828 19.3098 1.87472 19.3098 1.87472C20.8624 1.87472 22.1255 3.13782 22.1255 4.69037V5.6746C22.1256 6.1923 22.5452 6.61196 23.0629 6.61196ZM4.69059 9.37717H19.3099C20.8624 9.37717 22.1255 10.6403 22.1255 12.1928V19.3096C22.1255 20.8622 20.8624 22.1253 19.3099 22.1253H5.63156C3.56215 22.1253 1.87856 20.4417 1.87856 18.3723V8.44361C2.66257 9.03086 3.63672 9.37717 4.69059 9.37717ZM20.2508 15.7512C20.2508 16.3983 19.7262 16.9229 19.0791 16.9229C17.5249 16.8612 17.5253 14.641 19.0791 14.5795C19.7262 14.5795 20.2508 15.1041 20.2508 15.7512ZM20.2508 4.69037C20.2508 4.17266 19.8312 3.75301 19.3135 3.75301H4.69064C3.44695 3.8025 3.44789 5.57866 4.69064 5.62773H19.3135C19.8311 5.62773 20.2508 5.20807 20.2508 4.69037Z" fill="#2D2D2D"/>
</g>
<defs>
<clipPath id="clip0">
<rect width="24" height="24" fill="white"/>
</clipPath>
</defs>
</svg>
