<svg width="24" height="24" viewBox="0 0 24 24" fill="none" xmlns="http://www.w3.org/2000/svg">
<path d="M22.3834 11.7576C21.5475 11.3395 20.4569 11.1094 19.3125 11.1094C18.1681 11.1094 17.0775 11.3395 16.2416 11.7576C15.199 12.2787 14.625 13.0474 14.625 13.9219C14.625 13.9497 14.6255 13.9774 14.6266 14.005C14.6255 14.024 14.625 14.0431 14.625 14.0625V15.2208C13.8234 14.866 12.8377 14.6719 11.8125 14.6719C10.6681 14.6719 9.57751 14.902 8.74164 15.3201C7.69904 15.8412 7.125 16.6099 7.125 17.4844C7.125 17.4955 7.12555 17.5065 7.12573 17.5177C7.12555 17.5223 7.125 17.5267 7.125 17.5312V21.1875C7.125 22.062 7.69904 22.8307 8.74164 23.3518C9.57751 23.7698 10.6681 24 11.8125 24C12.9569 24 14.0475 23.7698 14.8834 23.3518C15.1384 23.2244 15.3651 23.0819 15.5625 22.927C15.7599 23.0819 15.9866 23.2244 16.2416 23.3518C17.0775 23.7698 18.1681 24 19.3125 24C20.4569 24 21.5475 23.7698 22.3834 23.3518C23.426 22.8307 24 22.062 24 21.1875V13.9219C24 13.0474 23.426 12.2787 22.3834 11.7576ZM14.0449 21.6747C13.4727 21.9609 12.659 22.125 11.8125 22.125C10.966 22.125 10.1523 21.9609 9.58008 21.6747C9.10089 21.4352 9 21.2199 9 21.1875V19.7677C9.79651 20.1097 10.7823 20.2969 11.8125 20.2969C11.8475 20.2969 11.8824 20.2967 11.9172 20.2963C12.4351 20.2901 12.8498 19.8657 12.8438 19.3478C12.8377 18.8302 12.412 18.4158 11.8953 18.4213C11.8678 18.4217 11.8401 18.4219 11.8125 18.4219C10.966 18.4219 10.1525 18.2578 9.58026 17.9716C9.10089 17.7321 9 17.5168 9 17.4844C9 17.452 9.10089 17.2366 9.58008 16.9971C10.1523 16.7109 10.966 16.5469 11.8125 16.5469C12.6491 16.5469 13.4586 16.7173 14.0334 17.0147C14.4847 17.2482 14.625 17.475 14.625 17.5312V21.1875C14.625 21.2199 14.5241 21.4352 14.0449 21.6747ZM22.125 21.1875C22.125 21.2199 22.0241 21.4352 21.5449 21.6747C20.9727 21.9609 20.159 22.125 19.3125 22.125C18.466 22.125 17.6523 21.9609 17.0801 21.6747C16.6009 21.4352 16.5 21.2199 16.5 21.1875V19.7677C17.2965 20.1097 18.2823 20.2969 19.3125 20.2969C19.3478 20.2969 19.383 20.2967 19.418 20.2961C19.9356 20.2897 20.3502 19.8647 20.3438 19.3471C20.3372 18.8293 19.9142 18.4144 19.3945 18.4213C19.3672 18.4217 19.34 18.4219 19.3125 18.4219C18.466 18.4219 17.6523 18.2578 17.0801 17.9716C16.6009 17.7321 16.5 17.5168 16.5 17.4844V16.2061C17.2963 16.548 18.2827 16.7344 19.3125 16.7344C19.3478 16.7344 19.383 16.7342 19.418 16.7336C19.9356 16.7272 20.3502 16.3022 20.3438 15.7846C20.3373 15.2708 19.9188 14.8588 19.4066 14.8588C19.4026 14.8588 19.3986 14.8588 19.3945 14.8588C19.3672 14.8592 19.34 14.8594 19.3125 14.8594C18.466 14.8594 17.6525 14.6953 17.0803 14.4091C16.6009 14.1696 16.5 13.9543 16.5 13.9219C16.5 13.8895 16.6009 13.6741 17.0801 13.4346C17.6523 13.1484 18.466 12.9844 19.3125 12.9844C20.159 12.9844 20.9727 13.1484 21.5449 13.4346C22.0241 13.6741 22.125 13.8895 22.125 13.9219V21.1875ZM24 3.75V9C24 9.51782 23.5803 9.9375 23.0625 9.9375C22.5447 9.9375 22.125 9.51782 22.125 9V3.75C22.125 2.71619 21.2838 1.875 20.25 1.875H3.75C2.71619 1.875 1.875 2.71619 1.875 3.75V13.4062C1.875 14.4401 2.71619 15.2812 3.75 15.2812H4.45312C4.97095 15.2812 5.39062 15.7009 5.39062 16.2188C5.39062 16.7366 4.97095 17.1562 4.45312 17.1562H3.75C1.68219 17.1562 0 15.4741 0 13.4062V3.75C0 1.68219 1.68219 0 3.75 0H20.25C22.3178 0 24 1.68219 24 3.75ZM14.6234 8.68048C14.6245 8.64459 14.625 8.60852 14.625 8.57245C14.625 6.94409 13.4474 5.61932 12 5.61932C10.5526 5.61932 9.375 6.94409 9.375 8.57245C9.375 9.67529 9.91663 10.6791 10.7884 11.192C11.2346 11.4545 11.3835 12.0291 11.1211 12.4753C10.9464 12.7723 10.6335 12.9377 10.3121 12.9377C10.1506 12.9377 9.98694 12.8959 9.83771 12.808C8.39575 11.9599 7.5 10.3369 7.5 8.57245C7.5 5.91028 9.51874 3.74432 12 3.74432C14.4813 3.74432 16.5 5.91028 16.5 8.57245C16.5 8.62866 16.4991 8.68469 16.4973 8.74036C16.4923 8.89655 16.4802 9.05383 16.4614 9.20782C16.3982 9.7218 15.9305 10.0873 15.4167 10.0243C14.9028 9.96112 14.5373 9.49347 14.6003 8.97949C14.6124 8.88135 14.6201 8.78064 14.6234 8.68048ZM4.54688 7.35938C5.0647 7.35938 5.48438 7.77905 5.48438 8.29688C5.48438 8.8147 5.0647 9.23438 4.54688 9.23438C4.02905 9.23438 3.60938 8.8147 3.60938 8.29688C3.60938 7.77905 4.02905 7.35938 4.54688 7.35938ZM19.5469 9.23438C19.0291 9.23438 18.6094 8.8147 18.6094 8.29688C18.6094 7.77905 19.0291 7.35938 19.5469 7.35938C20.0647 7.35938 20.4844 7.77905 20.4844 8.29688C20.4844 8.8147 20.0647 9.23438 19.5469 9.23438Z" fill="#2D2D2D"/>
</svg>
