<svg width="16" height="16" viewBox="0 0 16 16" fill="none" xmlns="http://www.w3.org/2000/svg">
<path d="M14.9222 7.83838C14.365 7.55969 13.6379 7.40625 12.875 7.40625C12.1121 7.40625 11.385 7.55969 10.8278 7.83838C10.1327 8.18579 9.75 8.69824 9.75 9.28125C9.75 9.2998 9.75037 9.31824 9.7511 9.33667C9.75037 9.34937 9.75 9.36206 9.75 9.375V10.1472C9.21558 9.91064 8.55847 9.78125 7.875 9.78125C7.11206 9.78125 6.38501 9.93469 5.82776 10.2134C5.13269 10.5608 4.75 11.0732 4.75 11.6562C4.75 11.6637 4.75037 11.671 4.75049 11.6785C4.75037 11.6815 4.75 11.6844 4.75 11.6875V14.125C4.75 14.708 5.13269 15.2205 5.82776 15.5679C6.38501 15.8466 7.11206 16 7.875 16C8.63794 16 9.36499 15.8466 9.92224 15.5679C10.0923 15.4829 10.2434 15.3879 10.375 15.2847C10.5066 15.3879 10.6577 15.4829 10.8278 15.5679C11.385 15.8466 12.1121 16 12.875 16C13.6379 16 14.365 15.8466 14.9222 15.5679C15.6173 15.2205 16 14.708 16 14.125V9.28125C16 8.69824 15.6173 8.18579 14.9222 7.83838ZM9.36328 14.4498C8.98181 14.6406 8.43933 14.75 7.875 14.75C7.31067 14.75 6.76819 14.6406 6.38672 14.4498C6.06726 14.2902 6 14.1466 6 14.125V13.1785C6.53101 13.4065 7.18823 13.5312 7.875 13.5312C7.89832 13.5312 7.92163 13.5311 7.94482 13.5309C8.29004 13.5267 8.56653 13.2438 8.5625 12.8986C8.55847 12.5535 8.27466 12.2772 7.93018 12.2809C7.91187 12.2811 7.89343 12.2812 7.875 12.2812C7.31067 12.2812 6.76831 12.1719 6.38684 11.9811C6.06726 11.8214 6 11.6779 6 11.6562C6 11.6346 6.06726 11.4911 6.38672 11.3314C6.76819 11.1406 7.31067 11.0312 7.875 11.0312C8.43274 11.0312 8.97241 11.1449 9.35559 11.3431C9.65649 11.4988 9.75 11.65 9.75 11.6875V14.125C9.75 14.1466 9.68274 14.2902 9.36328 14.4498ZM14.75 14.125C14.75 14.1466 14.6827 14.2902 14.3633 14.4498C13.9818 14.6406 13.4393 14.75 12.875 14.75C12.3107 14.75 11.7682 14.6406 11.3867 14.4498C11.0673 14.2902 11 14.1466 11 14.125V13.1785C11.531 13.4065 12.1882 13.5312 12.875 13.5312C12.8986 13.5312 12.922 13.5311 12.9453 13.5308C13.2904 13.5265 13.5668 13.2432 13.5625 12.8981C13.5581 12.5529 13.2761 12.2762 12.9297 12.2809C12.9115 12.2811 12.8933 12.2812 12.875 12.2812C12.3107 12.2812 11.7682 12.1719 11.3867 11.9811C11.0673 11.8214 11 11.6779 11 11.6562V10.8041C11.5309 11.032 12.1885 11.1562 12.875 11.1562C12.8986 11.1562 12.922 11.1561 12.9453 11.1558C13.2904 11.1515 13.5668 10.8682 13.5625 10.5231C13.5582 10.1805 13.2792 9.90588 12.9377 9.90588C12.9351 9.90588 12.9324 9.90588 12.9297 9.90588C12.9115 9.90613 12.8933 9.90625 12.875 9.90625C12.3107 9.90625 11.7683 9.79688 11.3868 9.60608C11.0673 9.44641 11 9.30286 11 9.28125C11 9.25964 11.0673 9.11609 11.3867 8.95642C11.7682 8.76562 12.3107 8.65625 12.875 8.65625C13.4393 8.65625 13.9818 8.76562 14.3633 8.95642C14.6827 9.11609 14.75 9.25964 14.75 9.28125V14.125ZM16 2.5V6C16 6.34521 15.7202 6.625 15.375 6.625C15.0298 6.625 14.75 6.34521 14.75 6V2.5C14.75 1.81079 14.1892 1.25 13.5 1.25H2.5C1.81079 1.25 1.25 1.81079 1.25 2.5V8.9375C1.25 9.62671 1.81079 10.1875 2.5 10.1875H2.96875C3.31396 10.1875 3.59375 10.4673 3.59375 10.8125C3.59375 11.1577 3.31396 11.4375 2.96875 11.4375H2.5C1.12146 11.4375 0 10.316 0 8.9375V2.5C0 1.12146 1.12146 0 2.5 0H13.5C14.8785 0 16 1.12146 16 2.5ZM9.7489 5.78699C9.74963 5.76306 9.75 5.73901 9.75 5.71497C9.75 4.62939 8.96497 3.74622 8 3.74622C7.03503 3.74622 6.25 4.62939 6.25 5.71497C6.25 6.4502 6.61108 7.11938 7.19226 7.4613C7.48975 7.63635 7.58899 8.01941 7.41406 8.31689C7.29761 8.51489 7.08899 8.62512 6.87476 8.62512C6.76709 8.62512 6.65796 8.59729 6.55847 8.5387C5.59717 7.97327 5 6.89124 5 5.71497C5 3.94019 6.34583 2.49622 8 2.49622C9.65417 2.49622 11 3.94019 11 5.71497C11 5.75244 10.9994 5.78979 10.9982 5.8269C10.9949 5.93103 10.9868 6.03589 10.9742 6.13855C10.9321 6.4812 10.6204 6.72485 10.2778 6.68286C9.93518 6.64075 9.69153 6.32898 9.73352 5.98633C9.74158 5.9209 9.7467 5.85376 9.7489 5.78699ZM3.03125 4.90625C3.37646 4.90625 3.65625 5.18604 3.65625 5.53125C3.65625 5.87646 3.37646 6.15625 3.03125 6.15625C2.68604 6.15625 2.40625 5.87646 2.40625 5.53125C2.40625 5.18604 2.68604 4.90625 3.03125 4.90625ZM13.0312 6.15625C12.686 6.15625 12.4062 5.87646 12.4062 5.53125C12.4062 5.18604 12.686 4.90625 13.0312 4.90625C13.3765 4.90625 13.6562 5.18604 13.6562 5.53125C13.6562 5.87646 13.3765 6.15625 13.0312 6.15625Z" fill="#2D2D2D"/>
</svg>
