<svg width="24" height="24" viewBox="0 0 24 24" fill="none" xmlns="http://www.w3.org/2000/svg">
<rect width="24" height="24" rx="8" fill="#3ED668"/>
<g clip-path="url(#clip0)">
<path d="M16.0893 11.0873H12.9099V7.91053C12.9099 7.40769 12.5042 7 12.0014 7C11.4986 7 11.0931 7.40769 11.0931 7.91075V11.0895H7.91215C7.40931 11.0895 7.00051 11.4972 7.00073 12.0002C7.00051 12.2515 7.10205 12.4819 7.26658 12.6464C7.43133 12.8114 7.65863 12.9156 7.90972 12.9156H11.0931V16.0899C11.0931 16.3414 11.1928 16.5692 11.3576 16.7335C11.5223 16.8982 11.749 17.0002 12.0005 17.0002C12.5031 17.0002 12.9099 16.5925 12.9099 16.0899V12.9154H16.0893C16.5922 12.9154 16.9999 12.5042 16.9996 12.0013C16.9994 11.4987 16.5917 11.0873 16.0893 11.0873Z" fill="white"/>
</g>
<defs>
<clipPath id="clip0">
<rect width="10" height="10" fill="white" transform="translate(7 7)"/>
</clipPath>
</defs>
</svg>
