<svg width="16" height="16" viewBox="0 0 16 16" fill="none" xmlns="http://www.w3.org/2000/svg">
<path d="M6.75 7.5C7.09518 7.5 7.375 7.22018 7.375 6.875C7.375 6.52982 7.09518 6.25 6.75 6.25C6.40482 6.25 6.125 6.52982 6.125 6.875C6.125 7.22018 6.40482 7.5 6.75 7.5Z" fill="#2D2D2D"/>
<path d="M14.125 0H1.875C0.841125 0 0 0.841125 0 1.875V11.875C0 12.6898 0.522563 13.3845 1.25 13.6425V16H5V13.75H11V16H14.75V13.6425C15.4774 13.3845 16 12.6898 16 11.875V1.875C16 0.841125 15.1589 0 14.125 0ZM3.75 14.75H2.5V13.75H3.75V14.75ZM12.25 14.75V13.75H13.5V14.75H12.25ZM14.125 12.5H1.875C1.53038 12.5 1.25 12.2196 1.25 11.875V11.25H2.5V10H1.25V3.75H2.5V2.5H1.25V1.875C1.25 1.53038 1.53038 1.25 1.875 1.25H14.125C14.4696 1.25 14.75 1.53038 14.75 1.875V3.75H14.125C13.0911 3.75 12.25 4.59113 12.25 5.625V8.125C12.25 9.15887 13.0911 10 14.125 10H14.75V11.875C14.75 12.2196 14.4696 12.5 14.125 12.5ZM14.75 5V8.75H14.125C13.7804 8.75 13.5 8.46963 13.5 8.125V5.625C13.5 5.28038 13.7804 5 14.125 5H14.75Z" fill="#2D2D2D"/>
<path d="M6.75 3.75C5.02684 3.75 3.625 5.15188 3.625 6.875C3.625 8.59812 5.02684 10 6.75 10C8.47316 10 9.875 8.59812 9.875 6.875C9.875 5.15188 8.47316 3.75 6.75 3.75ZM6.75 8.75C5.71613 8.75 4.875 7.90887 4.875 6.875C4.875 5.84113 5.71613 5 6.75 5C7.78387 5 8.625 5.84113 8.625 6.875C8.625 7.90887 7.78387 8.75 6.75 8.75Z" fill="#2D2D2D"/>
</svg>
