<svg width="16" height="14" viewBox="0 0 16 14" fill="none" xmlns="http://www.w3.org/2000/svg">
<path d="M15.8327 4.88163L11.8327 0.881553C11.6095 0.658425 11.2476 0.658492 11.0245 0.881687C10.9174 0.988832 10.8572 1.13408 10.8572 1.28559V2.9999H6.85713C6.54152 2.9999 6.28568 3.25574 6.28568 3.57135C6.28568 3.88696 6.54152 4.1428 6.85713 4.1428H11.4286C11.7443 4.1428 12.0001 3.88696 12.0001 3.57135V2.66501L14.6207 5.28563L12.0001 7.90626V6.99995C12.0001 6.68434 11.7443 6.4285 11.4286 6.4285H5.14281V4.71418C5.14275 4.39858 4.88684 4.1428 4.57126 4.14287C4.41979 4.1429 4.27451 4.20307 4.16736 4.31018L0.167321 8.31026C-0.0557738 8.53342 -0.0557738 8.89513 0.167321 9.11826L4.1674 13.1183C4.27454 13.2255 4.41986 13.2858 4.5714 13.2858C4.6465 13.286 4.72093 13.2713 4.79024 13.2424C5.00373 13.1538 5.14288 12.9455 5.14281 12.7143V11H9.14289C9.4585 11 9.71434 10.7442 9.71434 10.4286C9.71434 10.113 9.4585 9.85713 9.14289 9.85713H4.5714C4.25579 9.85713 3.99995 10.113 3.99995 10.4286V11.3349L1.37933 8.71426L3.99995 6.09364V6.99995C3.99995 7.31556 4.25579 7.5714 4.5714 7.5714H10.8572V9.28571C10.8573 9.60132 11.1132 9.85709 11.4288 9.85703C11.5802 9.85699 11.7255 9.79682 11.8327 9.68971L15.8327 5.68964C16.0558 5.46647 16.0558 5.10476 15.8327 4.88163Z" fill="#2D2D2D"/>
</svg>
