<svg width="16" height="10" viewBox="0 0 16 10" fill="none" xmlns="http://www.w3.org/2000/svg">
<path d="M7.46381 7.14475H3.88998C2.69113 7.14475 1.71582 6.17261 1.71582 4.97767C1.71582 4.00626 2.34737 3.18143 3.21716 2.89982V3.32809C3.21716 3.59112 3.37943 3.77484 3.6118 3.77484C3.70076 3.77484 3.79054 3.747 3.8787 3.6921L5.89302 2.43822C6.04363 2.34437 6.13002 2.20328 6.13002 2.05113C6.13002 1.8995 6.04419 1.7591 5.8944 1.6658L3.87874 0.412012C3.79054 0.357106 3.70076 0.329224 3.6118 0.329224C3.37943 0.329224 3.21716 0.512945 3.21716 0.77598V1.13664C1.39277 1.4515 0 3.05394 0 4.97772C0 7.11876 1.74503 8.86061 3.88998 8.86061H7.46381C7.93764 8.86061 8.32172 8.47653 8.32172 8.0027C8.32172 7.52888 7.93764 7.14475 7.46381 7.14475Z" fill="white"/>
<path d="M16 5.00084C16 2.848 14.255 1.0965 12.11 1.0965H8.53619C8.06237 1.0965 7.67828 1.48058 7.67828 1.95441C7.67828 2.42823 8.06237 2.81231 8.53619 2.81231H12.11C13.3089 2.81231 14.2842 3.79406 14.2842 5.00084C14.2842 5.96749 13.6526 6.78825 12.7828 7.06849V6.67187C12.7828 6.40884 12.6206 6.22512 12.3882 6.22512C12.2992 6.22512 12.2095 6.25296 12.1213 6.30786L10.107 7.56174C9.95637 7.6556 9.86998 7.79668 9.86998 7.94883C9.86998 8.10046 9.95582 8.24086 10.1056 8.33416L12.1213 9.58795C12.2095 9.64286 12.2992 9.67074 12.3882 9.67074C12.6206 9.67074 12.7828 9.48702 12.7828 9.22398V8.83136C13.5712 8.69778 14.2962 8.32536 14.8703 7.74803C15.5988 7.01534 16 6.03972 16 5.00084Z" fill="white"/>
</svg>
