<svg width="8" height="14" viewBox="0 0 8 14" fill="none" xmlns="http://www.w3.org/2000/svg">
<path d="M2.38367 2.7017C2.38367 2.61443 2.39579 2.42596 2.42003 2.13748C2.44609 1.8484 2.55518 1.54599 2.75093 1.22843C2.94486 0.912082 3.25939 0.627852 3.69695 0.376347C4.13268 0.126055 4.76235 0 5.58414 0H7.89919V2.52292H6.20411C6.03624 2.52292 5.87988 2.58595 5.73868 2.71019C5.59868 2.83442 5.52656 2.9526 5.52656 3.06229V4.63192H7.89858C7.87373 4.93918 7.84646 5.23796 7.81495 5.52643L7.72101 6.28882C7.68344 6.54638 7.64526 6.78516 7.60769 7.00515H5.5096V14H2.38367V7.00455H0.858887V4.63192H2.38367V2.7017Z" fill="#1B69FF"/>
</svg>
