<svg width="44" height="44" viewBox="0 0 44 44" fill="none" xmlns="http://www.w3.org/2000/svg">
<rect width="44" height="44" rx="15" fill="#9191B2"/>
<g clip-path="url(#clip0)">
<path d="M33.9404 20.1355C33.8193 19.8431 33.5339 19.6524 33.2174 19.6524H32.1696C31.6704 17.4961 30.4855 15.5366 28.7874 14.0797C26.9813 12.5302 24.6996 11.6466 22.3301 11.5713L20.9882 10.2295C20.7644 10.0057 20.4278 9.93873 20.1353 10.0598C19.8428 10.1809 19.6522 10.4664 19.6522 10.7828V11.8306C17.4959 12.3298 15.5363 13.5147 14.0795 15.2128C12.53 17.019 11.6464 19.3007 11.5711 21.6702L10.2293 23.012C10.0054 23.2359 9.93846 23.5724 10.0596 23.8649C10.1807 24.1574 10.4661 24.348 10.7827 24.348H11.8304C12.3297 26.5043 13.5146 28.4638 15.2127 29.9207C17.0188 31.4702 19.3005 32.3538 21.67 32.4291L23.0119 33.771C23.1615 33.9207 23.3617 34.0003 23.5654 34.0002C23.6662 34.0002 23.7679 33.9807 23.8647 33.9407C24.1571 33.8195 24.3478 33.5341 24.3478 33.2177V32.1699C26.5041 31.6706 28.4636 30.4857 29.9205 28.7876C31.47 26.9815 32.3536 24.6998 32.4289 22.3303L33.7707 20.9885C33.9946 20.7646 34.0616 20.428 33.9404 20.1355ZM20.5614 13.2456C20.8793 13.1935 21.1262 12.9543 21.1969 12.6518L21.4466 12.9015C21.4466 12.9015 21.4466 12.9015 21.4466 12.9015L22.4585 13.9133L21.1067 15.265C21.0578 15.1833 20.994 15.1101 20.9171 15.05C20.7275 14.9016 20.4802 14.8488 20.2466 14.9066C18.6901 15.2922 17.2804 16.2005 16.2772 17.4642C15.6022 18.3146 15.135 19.2778 14.8916 20.3067L14.4664 19.8816C14.1704 19.5855 13.6967 19.5771 13.3895 19.8546C14.2217 16.4735 16.9839 13.8323 20.5614 13.2456ZM26.4032 20.9884L27.7297 22.3149C27.6124 24.4821 26.2925 26.3711 24.3479 27.2405V26.9567C24.3479 26.6402 24.1572 26.3548 23.8647 26.2337C23.5724 26.1126 23.2357 26.1796 23.0118 26.4034L21.6853 27.7299C19.5181 27.6126 17.6292 26.2927 16.7597 24.3481H17.0435C17.36 24.3481 17.6454 24.1575 17.7665 23.865C17.8876 23.5725 17.8206 23.2359 17.5968 23.0121L16.2703 21.6856C16.3876 19.5184 17.7075 17.6294 19.6521 16.76V17.0437C19.6522 17.3603 19.8428 17.6457 20.1353 17.7668C20.4277 17.888 20.7643 17.821 20.9881 17.5972L22.3147 16.2706C24.4818 16.3879 26.3708 17.7079 27.2403 19.6524H26.9565C26.6399 19.6524 26.3546 19.8431 26.2335 20.1356C26.1124 20.4279 26.1793 20.7646 26.4032 20.9884ZM19.8815 29.5339C19.5855 29.8299 19.577 30.3036 19.8545 30.6108C16.4732 29.7786 13.8321 27.0163 13.2454 23.4388C13.1932 23.1209 12.9541 22.874 12.6515 22.8034L13.9131 21.5418L15.2649 22.8936C15.1831 22.9424 15.1099 23.0063 15.0498 23.0832C14.9015 23.2728 14.8486 23.52 14.9065 23.7537C15.292 25.3102 16.2004 26.7199 17.4641 27.7231C18.3145 28.3981 19.2777 28.8654 20.3066 29.1087L19.8815 29.5339ZM23.4386 30.7548C23.1207 30.807 22.8739 31.0462 22.8031 31.3487L21.5416 30.0872L22.8934 28.7354C22.9422 28.8171 23.0061 28.8903 23.083 28.9504C23.2725 29.0988 23.5199 29.1517 23.7535 29.0938C25.31 28.7082 26.7197 27.7999 27.7228 26.5362C28.3979 25.6858 28.8651 24.7226 29.1085 23.6937L29.5336 24.1189C29.6864 24.2717 29.8867 24.3481 30.087 24.3481C30.2747 24.3481 30.4619 24.2801 30.6105 24.1459C29.7784 27.527 27.0161 30.1681 23.4386 30.7548ZM30.0869 22.4586L28.7352 21.1069C28.8169 21.058 28.8901 20.9942 28.9502 20.9173C29.0985 20.7276 29.1514 20.4804 29.0935 20.2468C28.7079 18.6903 27.7996 17.2806 26.5359 16.2774C25.6855 15.6024 24.7223 15.1351 23.6934 14.8918L24.1185 14.4666C24.4146 14.1706 24.423 13.6969 24.1455 13.3897C27.5267 14.2218 30.1678 16.9841 30.7545 20.5617C30.8067 20.8796 31.0459 21.1264 31.3484 21.1971L30.0869 22.4586Z" fill="white"/>
</g>
<defs>
<clipPath id="clip0">
<rect width="24" height="24" fill="white" transform="translate(10 10)"/>
</clipPath>
</defs>
</svg>
