<svg width="44" height="44" viewBox="0 0 44 44" fill="none" xmlns="http://www.w3.org/2000/svg">
<rect width="44" height="44" rx="15" fill="#1B69FF"/>
<g clip-path="url(#clip0)">
<path d="M33.9404 20.1356C33.8193 19.8432 33.5339 19.6525 33.2174 19.6525H32.1696C31.6704 17.4962 30.4855 15.5367 28.7874 14.0798C26.9813 12.5303 24.6996 11.6467 22.3301 11.5714L20.9882 10.2296C20.7644 10.0058 20.4278 9.93882 20.1353 10.0599C19.8428 10.181 19.6522 10.4664 19.6522 10.7829V11.8306C17.4959 12.3299 15.5363 13.5148 14.0795 15.2129C12.53 17.0191 11.6464 19.3008 11.5711 21.6703L10.2293 23.0121C10.0054 23.236 9.93846 23.5725 10.0596 23.865C10.1807 24.1575 10.4661 24.3481 10.7827 24.3481H11.8304C12.3297 26.5044 13.5146 28.4639 15.2127 29.9208C17.0188 31.4703 19.3005 32.3539 21.67 32.4292L23.0119 33.7711C23.1615 33.9208 23.3617 34.0004 23.5654 34.0003C23.6662 34.0003 23.7679 33.9808 23.8647 33.9407C24.1571 33.8196 24.3478 33.5342 24.3478 33.2177V32.17C26.5041 31.6707 28.4636 30.4858 29.9205 28.7877C31.47 26.9816 32.3536 24.6999 32.4289 22.3304L33.7707 20.9885C33.9946 20.7647 34.0616 20.4281 33.9404 20.1356ZM20.5614 13.2457C20.8793 13.1936 21.1262 12.9544 21.1969 12.6518L21.4466 12.9015C21.4466 12.9015 21.4466 12.9015 21.4466 12.9016L22.4585 13.9133L21.1067 15.2651C21.0578 15.1834 20.994 15.1102 20.9171 15.0501C20.7275 14.9017 20.4802 14.8489 20.2466 14.9067C18.6901 15.2923 17.2804 16.2006 16.2772 17.4643C15.6022 18.3147 15.135 19.2779 14.8916 20.3068L14.4664 19.8816C14.1704 19.5856 13.6967 19.5772 13.3895 19.8547C14.2217 16.4736 16.9839 13.8324 20.5614 13.2457ZM26.4032 20.9885L27.7297 22.315C27.6124 24.4822 26.2925 26.3712 24.3479 27.2406V26.9568C24.3479 26.6403 24.1572 26.3549 23.8647 26.2338C23.5724 26.1127 23.2357 26.1797 23.0118 26.4035L21.6853 27.73C19.5181 27.6127 17.6292 26.2928 16.7597 24.3482H17.0435C17.36 24.3482 17.6454 24.1576 17.7665 23.8651C17.8876 23.5726 17.8206 23.236 17.5968 23.0122L16.2703 21.6857C16.3876 19.5185 17.7075 17.6295 19.6521 16.7601V17.0438C19.6522 17.3604 19.8428 17.6458 20.1353 17.7669C20.4277 17.8881 20.7643 17.8211 20.9881 17.5972L22.3147 16.2707C24.4818 16.388 26.3708 17.708 27.2403 19.6525H26.9565C26.6399 19.6525 26.3546 19.8432 26.2335 20.1357C26.1124 20.428 26.1793 20.7647 26.4032 20.9885ZM19.8815 29.534C19.5855 29.83 19.577 30.3037 19.8545 30.6109C16.4732 29.7787 13.8321 27.0164 13.2454 23.4389C13.1932 23.121 12.9541 22.8741 12.6515 22.8035L13.9131 21.5419L15.2649 22.8937C15.1831 22.9425 15.1099 23.0064 15.0498 23.0833C14.9015 23.2729 14.8486 23.5201 14.9065 23.7538C15.292 25.3103 16.2004 26.72 17.4641 27.7232C18.3145 28.3982 19.2777 28.8655 20.3066 29.1088L19.8815 29.534ZM23.4386 30.7549C23.1207 30.8071 22.8739 31.0463 22.8031 31.3488L21.5416 30.0872L22.8934 28.7355C22.9422 28.8172 23.0061 28.8904 23.083 28.9505C23.2725 29.0989 23.5199 29.1518 23.7535 29.0939C25.31 28.7083 26.7197 27.8 27.7228 26.5363C28.3979 25.6859 28.8651 24.7227 29.1085 23.6938L29.5336 24.1189C29.6864 24.2718 29.8867 24.3482 30.087 24.3482C30.2747 24.3482 30.4619 24.2802 30.6105 24.146C29.7784 27.5271 27.0161 30.1682 23.4386 30.7549ZM30.0869 22.4587L28.7352 21.107C28.8169 21.0581 28.8901 20.9943 28.9502 20.9173C29.0985 20.7277 29.1514 20.4805 29.0935 20.2468C28.7079 18.6904 27.7996 17.2806 26.5359 16.2775C25.6855 15.6025 24.7223 15.1352 23.6934 14.8919L24.1185 14.4667C24.4146 14.1707 24.423 13.697 24.1455 13.3898C27.5267 14.2219 30.1678 16.9842 30.7545 20.5618C30.8067 20.8797 31.0459 21.1265 31.3484 21.1972L30.0869 22.4587Z" fill="white"/>
</g>
<defs>
<clipPath id="clip0">
<rect width="24" height="24" fill="white" transform="translate(10 10)"/>
</clipPath>
</defs>
</svg>
