<svg width="14" height="16" viewBox="0 0 14 16" fill="none" xmlns="http://www.w3.org/2000/svg">
<path d="M12.6607 1.6675C12.5238 1.53115 12.338 1.45456 12.1443 1.45456C12.1443 1.45456 12.1442 1.45456 12.1442 1.45456L11.4141 1.45481V2.18209V2.90937V13.0909V13.8182V14.5455H12.1443C12.5477 14.5455 12.8746 14.2198 12.8746 13.8182V2.18184C12.8746 1.9889 12.7977 1.8039 12.6607 1.6675Z" fill="#1B69FF"/>
<path d="M9.69244 0.170102C9.52704 0.0319147 9.30877 -0.0263664 9.09614 0.0111335L0.819665 1.46654C0.470699 1.52788 0.216309 1.82985 0.216309 2.18272V13.8182C0.216309 14.1711 0.47073 14.4731 0.819697 14.5344L9.09618 15.9889C9.13844 15.9963 9.18084 16 9.22304 16C9.3934 16 9.55996 15.9406 9.69247 15.8299C9.85787 15.6917 9.95333 15.4877 9.95333 15.2727V15.122V14.5455V13.8182V13.0909V2.90975V2.18247V1.45519V0.727288C9.95333 0.51232 9.85787 0.308351 9.69244 0.170102ZM6.81846 8.99926C6.68269 9.13457 6.49422 9.21211 6.30196 9.21211C6.10967 9.21211 5.92174 9.13454 5.7854 8.9992C5.64956 8.86355 5.57168 8.67639 5.57168 8.48483C5.57168 8.29333 5.64956 8.10611 5.7854 7.97045C5.92171 7.83514 6.10964 7.75755 6.30196 7.75755C6.49422 7.75755 6.68269 7.83511 6.81846 7.97045C6.9543 8.10617 7.03225 8.29333 7.03225 8.48483C7.03222 8.67642 6.95427 8.86358 6.81846 8.99926Z" fill="#1B69FF"/>
</svg>
