<svg width="446" height="454" viewBox="0 0 446 454" fill="none" xmlns="http://www.w3.org/2000/svg">
<g clip-path="url(#clip0)">
<path d="M335.873 22.7265C312.382 4.00774 279.415 -7.17546 252.043 5.23865C211.467 23.6422 215.407 78.7026 178.109 98.442C157.911 109.145 133.442 102.39 110.597 101.324C82.0374 100.003 50.4546 108.424 27.6999 126.047C1.441 146.417 -6.86078 180.072 5.8626 210.724C42.3333 298.644 167.747 342.776 254.675 349.501C324.308 354.875 406.468 338.378 436.397 267.106C441.345 255.322 444.248 243.133 445.406 230.719C452.685 153.112 391.775 67.2942 335.873 22.7265Z" fill="url(#paint0_linear)"/>
<path d="M216.757 212.342H74.9258V244.73H216.757V212.342Z" fill="#4C89FF"/>
<path d="M81.8682 241.601V215.488H209.83V241.601H81.8682Z" fill="#1B69FF"/>
<path d="M145.85 242.224C162.559 242.224 176.104 236.099 176.104 228.545C176.104 220.99 162.559 214.865 145.85 214.865C129.14 214.865 115.595 220.99 115.595 228.545C115.595 236.099 129.14 242.224 145.85 242.224Z" fill="#4C89FF"/>
<path d="M96.4118 212.342H74.9258V222.057C86.804 222.057 96.4118 217.716 96.4118 212.342Z" fill="#4C89FF"/>
<path d="M216.757 222.057V212.342H195.271C195.287 217.716 204.895 222.057 216.757 222.057Z" fill="#4C89FF"/>
<path d="M74.9258 235.016V244.73H96.4118C96.4118 239.373 86.804 235.016 74.9258 235.016Z" fill="#4C89FF"/>
<path d="M216.757 235.016C204.895 235.016 195.271 239.357 195.271 244.73H216.757V235.016Z" fill="#4C89FF"/>
<path d="M149.617 236.13V237.473C149.617 238.112 148.449 238.636 147.034 238.636C145.603 238.636 144.451 238.112 144.451 237.473V236.212C141.49 236.064 138.644 235.655 136.85 235.163C135.584 234.803 134.679 234.393 134.679 233.771C134.679 233.083 135.945 232.525 137.476 232.525C138.265 232.525 138.907 232.673 139.746 232.886C141.44 233.312 143.974 233.721 146.656 233.721C150.028 233.721 152.364 233.148 152.364 232.034C152.364 229.38 135.567 230.117 135.567 225.514C135.567 223.171 139.581 221.844 144.435 221.451V220.206C144.435 219.567 145.603 219.059 147.018 219.059C148.449 219.059 149.6 219.567 149.6 220.206V221.369C151.657 221.435 153.401 221.648 154.717 221.926C156.675 222.286 157.777 222.712 157.777 223.4C157.777 224.089 156.56 224.646 155.03 224.646C154.289 224.646 153.664 224.547 152.973 224.433C151.756 224.22 149.485 223.908 147.166 223.908C143.941 223.908 141.72 224.498 141.72 225.432C141.72 227.922 158.83 227.414 158.83 231.887C158.846 234.262 154.832 235.753 149.617 236.13Z" fill="white"/>
<path d="M216.757 244.943H74.9258V368.68H216.757V244.943Z" fill="#1B69FF"/>
<path d="M175.856 327.839H34.0254V360.227H175.856V327.839Z" fill="#4C89FF"/>
<path d="M40.9521 357.081V330.968H168.931V357.081H40.9521Z" fill="#1B69FF"/>
<path d="M104.95 357.704C121.659 357.704 135.204 351.58 135.204 344.025C135.204 336.47 121.659 330.345 104.95 330.345C88.2404 330.345 74.6948 336.47 74.6948 344.025C74.6948 351.58 88.2404 357.704 104.95 357.704Z" fill="#4C89FF"/>
<path d="M55.5114 327.839H34.0254V337.553C45.8871 337.553 55.5114 333.196 55.5114 327.839Z" fill="#4C89FF"/>
<path d="M175.857 337.553V327.839H154.371C154.388 333.196 163.995 337.553 175.857 337.553Z" fill="url(#paint1_linear)"/>
<path d="M34.0264 350.496V360.21H55.5124C55.5124 354.853 45.8881 350.496 34.0264 350.496Z" fill="#4C89FF"/>
<path d="M175.857 350.496C163.995 350.496 154.371 354.837 154.371 360.21H175.857V350.496Z" fill="url(#paint2_linear)"/>
<path d="M108.701 351.61V352.953C108.701 353.592 107.533 354.116 106.118 354.116C104.703 354.116 103.535 353.592 103.535 352.953V351.692C100.574 351.544 97.7276 351.135 95.9343 350.643C94.6675 350.283 93.7627 349.873 93.7627 349.251C93.7627 348.562 95.0295 348.005 96.5595 348.005C97.3492 348.005 97.9908 348.153 98.8298 348.366C100.524 348.792 103.058 349.201 105.74 349.201C109.112 349.201 111.448 348.628 111.448 347.514C111.448 344.86 94.6511 345.597 94.6511 340.994C94.6511 338.651 98.6653 337.324 103.519 336.931V335.686C103.519 335.047 104.687 334.539 106.102 334.539C107.516 334.539 108.684 335.047 108.684 335.686V336.849C110.741 336.915 112.485 337.127 113.801 337.406C115.759 337.766 116.861 338.192 116.861 338.88C116.861 339.568 115.644 340.125 114.114 340.125C113.373 340.125 112.748 340.027 112.057 339.913C110.84 339.7 108.569 339.388 106.25 339.388C103.025 339.388 100.804 339.978 100.804 340.912C100.804 343.402 117.914 342.894 117.914 347.367C117.947 349.758 113.933 351.233 108.701 351.61Z" fill="white"/>
<path d="M175.552 359.375H33.7656V409.47H175.552V359.375Z" fill="#1B69FF"/>
<path d="M288.98 451.412H153.664C137.837 451.412 125.005 438.633 125.005 422.873V288.128C125.005 272.368 137.837 259.589 153.664 259.589H288.98C304.807 259.589 317.639 272.368 317.639 288.128V422.873C317.623 438.633 304.79 451.412 288.98 451.412Z" fill="url(#paint3_linear)"/>
<path d="M286.348 434.374H156.28C148.449 434.374 142.099 428.05 142.099 420.252V290.732C142.099 282.934 148.449 276.611 156.28 276.611H286.348C294.179 276.611 300.529 282.934 300.529 290.732V420.252C300.529 428.05 294.179 434.374 286.348 434.374Z" fill="url(#paint4_linear)"/>
<path d="M125.021 337.422L125.005 330.706L147.133 330.64C148.992 330.64 150.505 332.131 150.522 333.998C150.522 335.85 149.025 337.357 147.149 337.373L125.021 337.422Z" fill="url(#paint5_linear)"/>
<path d="M125.021 380.197L125.005 373.48L147.133 373.415C148.992 373.415 150.505 374.905 150.522 376.773C150.522 378.624 149.025 380.131 147.149 380.148L125.021 380.197Z" fill="url(#paint6_linear)"/>
<path d="M221.314 392.926C216.247 392.926 211.328 391.943 206.689 389.977C202.214 388.093 198.199 385.39 194.745 381.966C191.29 378.526 188.592 374.529 186.7 370.073C184.742 365.453 183.738 360.554 183.738 355.509C183.738 350.463 184.725 345.564 186.7 340.945C188.592 336.489 191.306 332.491 194.745 329.051C198.199 325.611 202.214 322.924 206.689 321.04C211.328 319.09 216.247 318.091 221.314 318.091C226.381 318.091 231.3 319.074 235.94 321.04C240.415 322.924 244.429 325.627 247.884 329.051C251.339 332.491 254.037 336.489 255.929 340.945C257.886 345.564 258.89 350.463 258.89 355.509C258.89 360.554 257.903 365.453 255.929 370.073C254.037 374.529 251.322 378.526 247.884 381.966C244.429 385.407 240.415 388.093 235.94 389.977C231.317 391.927 226.381 392.926 221.314 392.926ZM221.314 324.808C204.319 324.808 190.484 338.586 190.484 355.509C190.484 372.432 204.319 386.209 221.314 386.209C238.309 386.209 252.145 372.432 252.145 355.509C252.145 338.569 238.309 324.808 221.314 324.808Z" fill="#BBCDFB"/>
<path d="M224.687 321.433H217.941V355.41H224.687V321.433Z" fill="#BBCDFB"/>
<path d="M193.46 375.299L190.088 369.483L219.635 352.494L223.008 358.326L193.46 375.299Z" fill="#BBCDFB"/>
<path d="M249.167 375.299L219.636 358.326L223.008 352.494L252.556 369.483L249.167 375.299Z" fill="#BBCDFB"/>
<path d="M221.314 367.73C228.101 367.73 233.603 362.251 233.603 355.492C233.603 348.734 228.101 343.254 221.314 343.254C214.527 343.254 209.024 348.734 209.024 355.492C209.024 362.251 214.527 367.73 221.314 367.73Z" fill="#BBCDFB"/>
<path d="M333.794 293.337C334.107 276.562 335.275 261.113 335.966 253.069H362.305C362.305 255.526 362.272 264.439 362.19 269.583C362.223 276.398 362.256 283.164 362.272 289.93C362.305 311.8 361.088 323.841 360.775 345.925C360.775 346.433 360.775 346.957 360.808 347.498L360.94 347.481C361.038 348.366 361.252 349.234 361.614 350.037C362.684 353.559 363.589 357.081 364.362 360.604C365.135 364.126 365.777 367.648 366.287 371.17C370.12 396.399 368.08 420.907 366.237 445.432L356.218 443.597C355.56 437.863 354.836 428.624 353.191 419.335C352.286 414.24 351.332 409.423 350.444 405.917C348.535 398.365 344.521 372.055 341.691 352.805C340.408 346.728 339.339 341.551 338.664 338.242C337.167 330.247 335.9 322.072 335.028 314.372C334.156 306.689 333.679 299.448 333.794 293.337Z" fill="#2D2D2D"/>
<path d="M431.386 434.554L437.704 439.583L419.064 454L424.378 439.977L431.386 434.554Z" fill="#2D2D2D"/>
<path d="M365.612 443.614L368.245 451.002H343.254L356.202 443.614H365.612Z" fill="#2D2D2D"/>
<path d="M376.092 253.069C376.668 257.099 377.655 264.127 378.181 268.272C379.185 275.12 380.188 281.919 381.175 288.717C384.334 310.703 384.861 322.908 387.707 345.122C387.822 346.007 387.986 346.941 388.25 347.842C388.464 348.104 388.694 348.35 388.941 348.579C391.359 351.479 393.646 354.444 395.801 357.458C397.956 360.473 400.013 363.536 401.938 366.649C415.955 388.88 424.427 412.389 433.163 436.094L424.411 439.96C421.417 434.833 416.168 424.839 410.805 416.746C407.86 412.29 404.998 408.129 402.727 405.18C397.742 398.644 382.524 374.48 371.88 357.376C370.877 355.771 370.054 354.067 369.412 352.281C367.504 346.908 365.908 342.354 364.872 339.356C362.256 331.443 359.854 323.35 357.896 315.683C355.938 308.016 354.458 300.791 353.685 294.648C351.348 275.775 349.292 259.77 348.634 253.069H376.092Z" fill="#2D2D2D"/>
<path d="M263.99 183.853C265.454 182.625 267.296 184.181 268.547 185.131C268.695 185.246 268.843 185.36 268.991 185.442C270.735 186.605 272.495 187.752 274.255 188.883L270.652 194.354C270.093 193.814 269.534 193.273 268.974 192.733C267.329 191.111 265.52 189.456 264.236 187.556C263.578 186.589 262.805 184.836 263.99 183.853Z" fill="url(#paint7_linear)"/>
<path d="M275.012 187.736C284.85 194.06 294.984 199.924 305.579 205.036C307.093 205.773 308.82 206.019 310.465 205.724C320.797 203.889 329.615 199.646 338.417 194.436C343.896 191.193 355.905 181.56 362.683 187.343C369.741 193.371 356.432 205.986 352.237 209.017C338.894 218.699 320.748 223.564 304.181 218.289C295.083 215.39 287.351 209.279 280.013 203.496C276.624 200.825 273.301 198.073 270.093 195.206L275.012 187.736Z" fill="#88A5F1"/>
<path d="M370.745 183.067C370.07 183.788 368.589 185.393 362.831 185.868C359.015 186.179 354.819 186.081 353.931 185.229C325.716 196.894 335.456 259.36 335.456 259.36H377.128C377.144 259.36 406.379 187.048 370.745 183.067Z" fill="#A8BEF7"/>
<path d="M355.79 151.694C355.79 151.694 352.039 152.317 351.365 155.872C350.69 159.427 352.533 162.769 356.777 161.507C361.022 160.246 361.318 153.038 355.79 151.694Z" fill="url(#paint8_linear)"/>
<path d="M353.718 185.311C353.784 185.278 353.849 185.246 353.932 185.229C354.82 186.081 359.032 186.179 362.832 185.868C368.492 185.393 370.022 183.837 370.713 183.1C370.104 181.789 369.248 179.594 368.673 176.76C367.702 172.009 369.38 167.045 369.38 167.045L359.163 168.519C359.163 168.519 359.295 172.582 357.979 177.546C356.761 182.117 354.129 184.902 353.718 185.311Z" fill="url(#paint9_linear)"/>
<path d="M367.439 149.204C376.339 151.219 378.412 161.458 374.036 166.488C370.005 171.124 367.373 168.486 365.119 172.254C363.375 175.17 357.041 178.545 353.899 178.005C350.756 177.48 349.243 170.092 351.744 160.508C354.228 150.941 362.536 148.09 367.439 149.204Z" fill="url(#paint10_linear)"/>
<path d="M354.458 183.476L352.418 185.917L353.635 188.702L357.288 186.016L354.458 183.476Z" fill="#88A5F1"/>
<path d="M370.35 180.167L373.361 183.476L360.2 189.8L357.288 186.016L370.35 180.167Z" fill="#88A5F1"/>
<path d="M370.301 149.499C378.313 153.087 378.017 163.031 375.385 167.045C372.752 171.075 368.458 173.09 368.458 173.09C368.458 173.09 369.1 169.027 366.78 166.963C364.477 164.899 365.546 158.837 362.141 157.051C358.735 155.249 355.396 158.395 352.517 155.069C349.638 151.744 354.738 143.765 361.565 145.862C368.393 147.959 368.343 148.614 370.301 149.499Z" fill="#2D2D2D"/>
<path d="M366.27 166.586C366.27 166.586 369.758 165.341 368.689 168.208C367.619 171.075 364.526 170.534 364.526 170.534L366.27 166.586Z" fill="url(#paint11_linear)"/>
<path d="M244.53 183.958L219.359 185.728L244.53 183.958Z" fill="url(#paint12_linear)"/>
<path d="M298.723 179.994L298.739 180.01L244.629 183.827L244.53 183.958L298.854 180.108L298.723 179.994Z" fill="url(#paint13_linear)"/>
<path d="M276.381 239.134L276.395 239.164V239.134V239.149L276.381 239.134Z" fill="url(#paint14_linear)"/>
<path d="M276.381 239.134L276.397 239.15L276.381 239.134Z" fill="url(#paint15_linear)"/>
<ellipse cx="276.715" cy="197.404" rx="42.6503" ry="42.5929" fill="#1B69FF"/>
<path d="M308.503 197.404C308.503 214.933 294.273 229.147 276.715 229.147C259.157 229.147 244.927 214.933 244.927 197.404C244.927 179.874 259.157 165.66 276.715 165.66C294.273 165.66 308.503 179.874 308.503 197.404Z" fill="#1B69FF" stroke="#4C89FF" stroke-width="3"/>
<path d="M269.053 202.968C269.636 203.976 269.768 205.056 269.451 206.209C269.143 207.356 268.387 208.277 267.181 208.972C265.933 209.691 264.707 209.872 263.502 209.514C262.307 209.15 261.329 208.308 260.566 206.989C259.431 205.025 259.335 202.463 260.279 199.3L260.567 198.324L263.327 196.732L263.345 196.764L262.483 199.443C262.01 200.976 261.775 202.247 261.777 203.257C262.056 202.542 262.617 201.942 263.459 201.456C264.478 200.869 265.521 200.731 266.589 201.044C267.661 201.34 268.483 201.981 269.053 202.968ZM267.251 205.856C267.4 205.299 267.316 204.746 266.997 204.195C266.679 203.644 266.244 203.3 265.692 203.161C265.135 203.011 264.57 203.101 263.998 203.431C263.416 203.767 263.035 204.222 262.854 204.797C262.684 205.366 262.755 205.921 263.068 206.461C263.38 207.001 263.825 207.34 264.404 207.477C264.993 207.609 265.578 207.507 266.16 207.171C266.732 206.841 267.096 206.403 267.251 205.856ZM274.411 192.711C275.452 193.385 276.375 194.418 277.18 195.81C277.984 197.202 278.419 198.517 278.483 199.754C278.552 201.529 277.813 202.863 276.264 203.756C274.715 204.649 273.188 204.622 271.684 203.674C270.643 203 269.72 201.967 268.915 200.575C268.11 199.183 267.676 197.868 267.612 196.631C267.542 194.856 268.282 193.523 269.831 192.629C271.38 191.736 272.907 191.763 274.411 192.711ZM269.954 196.402C270.049 197.262 270.415 198.242 271.051 199.343C271.688 200.445 272.355 201.251 273.053 201.763C273.796 202.304 274.521 202.371 275.228 201.964C275.934 201.556 276.239 200.896 276.141 199.983C276.046 199.123 275.68 198.143 275.043 197.042C274.407 195.941 273.739 195.134 273.042 194.622C272.299 194.081 271.574 194.014 270.867 194.422C270.16 194.829 269.856 195.489 269.954 196.402ZM284.424 184.215L286.017 184.273L284.713 198.884L283.127 198.802L284.424 184.215ZM292.268 190.913C292.706 191.671 292.82 192.444 292.609 193.23C292.393 194.006 291.915 194.607 291.177 195.032C290.429 195.464 289.669 195.577 288.898 195.37C288.127 195.163 287.519 194.676 287.075 193.907C286.643 193.159 286.529 192.4 286.736 191.63C286.946 190.844 287.421 190.238 288.159 189.812C288.897 189.387 289.66 189.279 290.447 189.49C291.228 189.691 291.835 190.165 292.268 190.913ZM288.463 193.107C288.703 193.522 289.007 193.797 289.376 193.931C289.738 194.054 290.101 194.011 290.465 193.801C290.84 193.586 291.064 193.29 291.138 192.915C291.206 192.529 291.12 192.129 290.88 191.713C290.646 191.308 290.347 191.044 289.985 190.92C289.616 190.786 289.245 190.827 288.871 191.043C288.507 191.253 288.291 191.551 288.223 191.936C288.149 192.311 288.229 192.702 288.463 193.107ZM281.951 189.215C282.389 189.974 282.503 190.746 282.292 191.532C282.076 192.308 281.598 192.909 280.86 193.335C280.112 193.766 279.352 193.879 278.581 193.672C277.81 193.466 277.202 192.978 276.758 192.209C276.326 191.461 276.213 190.702 276.419 189.932C276.63 189.146 277.104 188.54 277.842 188.114C278.58 187.689 279.343 187.582 280.13 187.792C280.911 187.993 281.518 188.467 281.951 189.215ZM278.146 191.409C278.386 191.825 278.69 192.099 279.059 192.233C279.421 192.357 279.785 192.313 280.148 192.104C280.523 191.888 280.747 191.592 280.821 191.217C280.889 190.832 280.803 190.431 280.563 190.016C280.329 189.61 280.03 189.346 279.668 189.223C279.299 189.089 278.928 189.13 278.554 189.345C278.19 189.555 277.974 189.853 277.906 190.239C277.832 190.614 277.912 191.004 278.146 191.409Z" fill="white"/>
<path d="M274.65 215.996C275.819 214.243 278.253 215.324 279.882 215.93C280.08 216.012 280.277 216.078 280.442 216.127C282.663 216.815 284.884 217.486 287.105 218.158L284.999 225.088C284.226 224.695 283.469 224.285 282.712 223.876C280.458 222.663 278.023 221.467 276.049 219.846C275.078 219.026 273.713 217.421 274.65 215.996Z" fill="white"/>
<path d="M287.565 216.7C299.986 220.353 312.572 223.45 325.437 225.579C327.28 225.891 329.188 225.612 330.85 224.793C341.231 219.633 349.276 212.392 357.008 204.135C361.812 198.991 371.552 185.033 380.551 189.079C389.945 193.29 379.745 210.819 376.241 215.34C365.086 229.757 347.368 240.553 328.119 240.094C317.54 239.849 307.439 235.753 297.831 231.887C293.406 230.101 289.013 228.201 284.703 226.169L287.565 216.7Z" fill="#88A5F1"/>
<path d="M296.811 124.499L304.971 92.1933C305.103 91.6691 304.79 91.1284 304.264 90.9974C304.247 90.9974 304.231 90.9974 304.214 90.981C303.688 90.8499 303.162 91.1776 303.03 91.6854L294.87 123.992C294.738 124.516 295.067 125.056 295.594 125.188C295.61 125.188 295.61 125.188 295.627 125.188C296.137 125.351 296.68 125.024 296.811 124.499Z" fill="white"/>
<path d="M265.01 122.714L259.564 89.8506C259.482 89.3264 258.972 88.966 258.445 89.0479C258.429 89.0479 258.413 89.0479 258.396 89.0479C257.853 89.1298 257.491 89.6377 257.59 90.1783L263.035 123.041C263.118 123.566 263.628 123.926 264.154 123.844C264.171 123.844 264.171 123.844 264.187 123.844C264.713 123.762 265.092 123.254 265.01 122.714Z" fill="white"/>
<path d="M324.828 137.933L344.965 111.344C345.294 110.918 345.212 110.296 344.768 109.968C344.751 109.952 344.735 109.952 344.718 109.936C344.291 109.624 343.682 109.706 343.353 110.132L323.232 136.737C322.903 137.18 323.002 137.802 323.446 138.113C323.463 138.113 323.463 138.13 323.479 138.13C323.89 138.441 324.499 138.359 324.828 137.933Z" fill="white"/>
<path d="M197.854 182.903L165.049 176.301C164.522 176.203 164.012 176.53 163.897 177.038C163.897 177.054 163.897 177.071 163.881 177.087C163.765 177.628 164.111 178.152 164.637 178.267L197.442 184.869C197.969 184.967 198.479 184.64 198.594 184.132C198.594 184.115 198.594 184.099 198.61 184.083C198.742 183.542 198.396 183.001 197.854 182.903Z" fill="white"/>
<path d="M211.772 153.972L184.232 135.066C183.788 134.771 183.195 134.87 182.883 135.296C182.866 135.312 182.866 135.328 182.85 135.345C182.521 135.787 182.636 136.41 183.097 136.721L210.637 155.626C211.081 155.921 211.673 155.823 211.986 155.397C212.002 155.38 212.002 155.38 212.019 155.364C212.331 154.905 212.233 154.283 211.772 153.972Z" fill="white"/>
<path d="M235.232 133.1L217.25 105.021C216.954 104.578 216.362 104.431 215.901 104.71C215.885 104.726 215.868 104.726 215.852 104.742C215.391 105.021 215.243 105.643 215.539 106.102L233.521 134.182C233.817 134.64 234.409 134.771 234.87 134.493C234.886 134.493 234.886 134.476 234.903 134.476C235.38 134.182 235.528 133.575 235.232 133.1Z" fill="white"/>
</g>
<defs>
<linearGradient id="paint0_linear" x1="316.188" y1="385.037" x2="81.5153" y2="114.455" gradientUnits="userSpaceOnUse">
<stop stop-color="#B6CAFD"/>
<stop offset="1" stop-color="#DDE9FF"/>
</linearGradient>
<linearGradient id="paint1_linear" x1="213.776" y1="284.239" x2="-29.1153" y2="528.158" gradientUnits="userSpaceOnUse">
<stop stop-color="white"/>
<stop offset="1" stop-color="#B9CBFA"/>
</linearGradient>
<linearGradient id="paint2_linear" x1="227.302" y1="297.241" x2="-12.3195" y2="537.877" gradientUnits="userSpaceOnUse">
<stop stop-color="white"/>
<stop offset="1" stop-color="#B9CBFA"/>
</linearGradient>
<linearGradient id="paint3_linear" x1="-56.5234" y1="601.427" x2="542.932" y2="66.3226" gradientUnits="userSpaceOnUse">
<stop stop-color="#B9CBFA"/>
<stop offset="1" stop-color="#F1F5FE"/>
</linearGradient>
<linearGradient id="paint4_linear" x1="-198.221" y1="726.85" x2="423.929" y2="171.488" gradientUnits="userSpaceOnUse">
<stop stop-color="#B9CBFA"/>
<stop offset="1" stop-color="#F1F5FE"/>
</linearGradient>
<linearGradient id="paint5_linear" x1="117.163" y1="337.305" x2="485.513" y2="273.444" gradientUnits="userSpaceOnUse">
<stop stop-color="#B9CBFA"/>
<stop offset="1" stop-color="#F1F5FE"/>
</linearGradient>
<linearGradient id="paint6_linear" x1="124.364" y1="378.836" x2="492.713" y2="314.976" gradientUnits="userSpaceOnUse">
<stop stop-color="#B9CBFA"/>
<stop offset="1" stop-color="#F1F5FE"/>
</linearGradient>
<linearGradient id="paint7_linear" x1="476.022" y1="236.381" x2="136.515" y2="158.191" gradientUnits="userSpaceOnUse">
<stop stop-color="#EFCBCB"/>
<stop offset="0.2798" stop-color="#EEC8C8"/>
<stop offset="0.5003" stop-color="#EDBEBE"/>
<stop offset="0.7005" stop-color="#EAADAD"/>
<stop offset="0.8876" stop-color="#E69696"/>
<stop offset="1" stop-color="#E38484"/>
</linearGradient>
<linearGradient id="paint8_linear" x1="355.932" y1="166.974" x2="355.266" y2="147.625" gradientUnits="userSpaceOnUse">
<stop stop-color="#0E0955"/>
<stop offset="1" stop-color="#3D27CA"/>
</linearGradient>
<linearGradient id="paint9_linear" x1="404.198" y1="218.644" x2="324.221" y2="138.329" gradientUnits="userSpaceOnUse">
<stop stop-color="#8EAAFE"/>
<stop offset="1" stop-color="#FCFCFC"/>
</linearGradient>
<linearGradient id="paint10_linear" x1="337.199" y1="138.67" x2="445.962" y2="250.434" gradientUnits="userSpaceOnUse">
<stop stop-color="white"/>
<stop offset="1" stop-color="#8EAAFE"/>
</linearGradient>
<linearGradient id="paint11_linear" x1="336.898" y1="138.344" x2="445.659" y2="250.113" gradientUnits="userSpaceOnUse">
<stop stop-color="#C5D3FD"/>
<stop offset="1" stop-color="white"/>
</linearGradient>
<linearGradient id="paint12_linear" x1="340.127" y1="34.2321" x2="184.359" y2="252.945" gradientUnits="userSpaceOnUse">
<stop stop-color="white"/>
<stop offset="1" stop-color="#A8BEF7"/>
</linearGradient>
<linearGradient id="paint13_linear" x1="404.613" y1="-3.02787" x2="189.35" y2="299.215" gradientUnits="userSpaceOnUse">
<stop stop-color="white"/>
<stop offset="1" stop-color="#A8BEF7"/>
</linearGradient>
<linearGradient id="paint14_linear" x1="425.677" y1="98.2409" x2="274.978" y2="235.831" gradientUnits="userSpaceOnUse">
<stop stop-color="white"/>
<stop offset="1" stop-color="#A8BEF7"/>
</linearGradient>
<linearGradient id="paint15_linear" x1="285.008" y1="231.015" x2="267.524" y2="247.001" gradientUnits="userSpaceOnUse">
<stop stop-color="white"/>
<stop offset="1" stop-color="#A8BEF7"/>
</linearGradient>
<clipPath id="clip0">
<rect width="446" height="454" fill="white"/>
</clipPath>
</defs>
</svg>
