<svg width="22" height="22" viewBox="0 0 22 22" fill="none" xmlns="http://www.w3.org/2000/svg">
<path d="M2.49785 9.19505C3.20513 9.19505 3.844 8.77038 4.11759 8.11796C5.24719 5.42665 7.90332 3.52994 10.9998 3.52994C12.7065 3.52994 14.2711 4.1149 15.5255 5.08511L14.5423 5.23732C14.2065 5.28938 13.9452 5.55583 13.8997 5.89258C13.8541 6.22916 14.0355 6.5557 14.3452 6.69487L19.7522 9.12736C19.9892 9.23379 20.2637 9.21333 20.4822 9.07295C20.7003 8.93234 20.8328 8.69104 20.8342 8.43141L20.8623 2.47376C20.8641 2.13484 20.6432 1.83512 20.3193 1.73632C19.9949 1.63753 19.6444 1.76292 19.4567 2.04503L18.7115 3.16506C16.7245 1.20911 14.0019 0 10.9998 0C6.44799 0 2.53443 2.77972 0.865291 6.73054C0.633475 7.27816 0.691903 7.9052 1.02012 8.40062C1.34834 8.89622 1.90314 9.19505 2.49785 9.19505Z" fill="white"/>
<path d="M20.9794 13.5994C20.6512 13.1038 20.0963 12.805 19.5017 12.805C18.7944 12.805 18.1555 13.2297 17.8819 13.8821C16.7523 16.5734 14.0961 18.4701 10.9997 18.4701C9.29297 18.4701 7.72832 17.8851 6.47388 16.9149L7.45713 16.7628C7.79294 16.7108 8.05419 16.4443 8.0998 16.1075C8.14536 15.7709 7.96398 15.4443 7.65427 15.3052L2.24736 12.8727C2.0103 12.7663 1.73577 12.7867 1.51727 12.9271C1.29923 13.0677 1.1667 13.309 1.1653 13.5686L1.13722 19.5262C1.13532 19.8652 1.35621 20.1649 1.68014 20.2637C2.00457 20.3625 2.35509 20.237 2.54275 19.9549L3.288 18.8349C5.27492 20.7909 7.99762 22 10.9996 22C15.5516 22 19.465 19.2203 21.1341 15.2695C21.366 14.7219 21.3076 14.0949 20.9794 13.5994Z" fill="white"/>
</svg>
