<svg width="12" height="18" viewBox="0 0 12 18" fill="none" xmlns="http://www.w3.org/2000/svg">
<path d="M7.97922 0.0484482C7.71752 -0.0402074 7.42722 -0.00163066 7.20066 0.151967C6.97399 0.305602 6.8393 0.555025 6.8393 0.821029V4.63815H5.12945V0.821066C5.12945 0.555062 4.99477 0.305564 4.76809 0.152004C4.54149 -0.00166802 4.25116 -0.0402821 3.98953 0.0484855C1.60332 0.857066 0 3.03085 0 5.4576C0 7.47576 1.07918 9.30455 2.84973 10.3445V14.9939C2.84973 16.6508 4.25595 17.9986 5.98442 17.9986C7.71288 17.9986 9.1191 16.6508 9.1191 14.994V10.3444C10.8896 9.30448 11.9688 7.47576 11.9688 5.45763C11.9688 3.03085 10.3655 0.857066 7.97922 0.0484482ZM7.88369 9.12836C7.593 9.2668 7.40926 9.5511 7.40926 9.86222V14.994C7.40926 15.7471 6.77006 16.3597 5.98442 16.3597C5.19877 16.3597 4.55957 15.747 4.55957 14.9939V9.86226C4.55957 9.55118 4.37575 9.26695 4.08522 9.1284C2.62005 8.43047 1.70988 7.02386 1.70988 5.45756C1.70988 4.14726 2.36412 2.94017 3.41973 2.17947V5.45763C3.41973 5.91017 3.80252 6.27708 4.27465 6.27708H7.6943C8.16643 6.27708 8.54922 5.91017 8.54922 5.45763V2.17951C9.60475 2.94021 10.2591 4.14726 10.2591 5.45767C10.259 7.02386 9.34878 8.43043 7.88369 9.12836Z" fill="#9191B2"/>
</svg>
