<svg width="36" height="36" viewBox="0 0 36 36" fill="none" xmlns="http://www.w3.org/2000/svg">
<rect x="0.5" y="0.5" width="35" height="35" rx="11.5" stroke="#D7D7EB"/>
<g clip-path="url(#clip0)">
<path d="M16.6734 18.51C16.6734 19.2148 17.25 19.6631 17.8471 19.6631C18.4234 19.6631 19 19.2148 19 18.51C19 17.7638 18.4234 17.3369 17.8471 17.3369C17.25 17.3369 16.6734 17.7638 16.6734 18.51Z" fill="#9191B2"/>
<path d="M12 18.51C12 19.2148 12.5765 19.6631 13.1739 19.6631C13.7504 19.6631 14.3265 19.2148 14.3265 18.51C14.3265 17.7638 13.7504 17.3369 13.1739 17.3369C12.5765 17.3369 12 17.7638 12 18.51Z" fill="#9191B2"/>
<path d="M21 18.51C21 19.2148 21.5765 19.6631 22.1737 19.6631C22.75 19.6631 23.3265 19.2148 23.3265 18.51C23.3265 17.7638 22.75 17.3369 22.1737 17.3369C21.5765 17.3369 21 17.7638 21 18.51Z" fill="#9191B2"/>
</g>
<defs>
<clipPath id="clip0">
<rect width="3" height="12" fill="white" transform="translate(24 17) rotate(90)"/>
</clipPath>
</defs>
</svg>
