<svg width="24" height="24" viewBox="0 0 24 24" fill="none" xmlns="http://www.w3.org/2000/svg">
<path d="M10.125 11.25C10.6428 11.25 11.0625 10.8303 11.0625 10.3125C11.0625 9.79473 10.6428 9.375 10.125 9.375C9.60723 9.375 9.1875 9.79473 9.1875 10.3125C9.1875 10.8303 9.60723 11.25 10.125 11.25Z" fill="#2D2D2D"/>
<path d="M21.1875 0H2.8125C1.26169 0 0 1.26169 0 2.8125V17.8125C0 19.0347 0.783844 20.0767 1.875 20.4637V24H7.5V20.625H16.5V24H22.125V20.4637C23.2162 20.0767 24 19.0347 24 17.8125V2.8125C24 1.26169 22.7383 0 21.1875 0ZM5.625 22.125H3.75V20.625H5.625V22.125ZM18.375 22.125V20.625H20.25V22.125H18.375ZM21.1875 18.75H2.8125C2.29556 18.75 1.875 18.3294 1.875 17.8125V16.875H3.75V15H1.875V5.625H3.75V3.75H1.875V2.8125C1.875 2.29556 2.29556 1.875 2.8125 1.875H21.1875C21.7044 1.875 22.125 2.29556 22.125 2.8125V5.625H21.1875C19.6367 5.625 18.375 6.88669 18.375 8.4375V12.1875C18.375 13.7383 19.6367 15 21.1875 15H22.125V17.8125C22.125 18.3294 21.7044 18.75 21.1875 18.75ZM22.125 7.5V13.125H21.1875C20.6706 13.125 20.25 12.7044 20.25 12.1875V8.4375C20.25 7.92056 20.6706 7.5 21.1875 7.5H22.125Z" fill="#2D2D2D"/>
<path d="M10.125 5.625C7.54027 5.625 5.4375 7.72781 5.4375 10.3125C5.4375 12.8972 7.54027 15 10.125 15C12.7097 15 14.8125 12.8972 14.8125 10.3125C14.8125 7.72781 12.7097 5.625 10.125 5.625ZM10.125 13.125C8.57419 13.125 7.3125 11.8633 7.3125 10.3125C7.3125 8.76169 8.57419 7.5 10.125 7.5C11.6758 7.5 12.9375 8.76169 12.9375 10.3125C12.9375 11.8633 11.6758 13.125 10.125 13.125Z" fill="#2D2D2D"/>
</svg>
