<svg width="18" height="18" viewBox="0 0 18 18" fill="none" xmlns="http://www.w3.org/2000/svg">
<path d="M12.8752 2.72356C12.4525 2.49397 11.9237 2.65045 11.6941 3.07316C11.4645 3.49581 11.621 4.02461 12.0437 4.25425C14.1059 5.37449 15.387 7.52665 15.387 9.87095C15.387 13.3928 12.5217 16.258 8.99988 16.258C5.47804 16.258 2.61279 13.3928 2.61279 9.87095C2.61279 7.53687 3.88562 5.38918 5.93454 4.26592C6.35638 4.03471 6.51083 3.50528 6.27962 3.0835C6.04835 2.66172 5.51891 2.50721 5.09719 2.73842C2.49033 4.16756 0.87085 6.9006 0.87085 9.87095C0.87085 14.3533 4.51753 18 8.99988 18C13.4822 18 17.1289 14.3533 17.1289 9.87095C17.1289 6.88759 15.499 4.14887 12.8752 2.72356Z" fill="white"/>
<path d="M8.99987 7.54839C9.48088 7.54839 9.87084 7.15843 9.87084 6.67742V0.870968C9.87084 0.389961 9.48088 0 8.99987 0C8.51887 0 8.12891 0.389961 8.12891 0.870968V6.67742C8.12891 7.15843 8.51887 7.54839 8.99987 7.54839Z" fill="white"/>
</svg>
