<svg width="16" height="16" viewBox="0 0 16 16" fill="none" xmlns="http://www.w3.org/2000/svg">
<path d="M12.9396 3.64721H3.06043C1.59493 3.64721 0.403564 4.83907 0.403564 6.30408V13.3426C0.403564 14.8072 1.59493 15.9995 3.06043 15.9995H12.9396C14.4051 15.9995 15.5965 14.8072 15.5965 13.3426V6.30408C15.5965 4.83957 14.4041 3.64721 12.9396 3.64721ZM14.4841 13.3431C14.4841 14.1962 13.7926 14.8877 12.9386 14.8877H3.05895C2.20692 14.8877 1.51442 14.1962 1.51442 13.3431V9.94092C1.95057 10.2541 2.48303 10.4413 3.05895 10.4413H12.9386C13.5155 10.4413 14.048 10.2541 14.4841 9.94092V13.3431ZM14.4841 7.7844C14.4841 8.63693 13.7926 9.32844 12.9386 9.32844H3.05895C2.20692 9.32844 1.51442 8.63693 1.51442 7.7844V6.30408C1.51442 5.45106 2.20692 4.75905 3.05895 4.75905H12.9386C13.7926 4.75905 14.4841 5.45106 14.4841 6.30408V7.7844Z" fill="#2D2D2D"/>
<path d="M5.59035 3.21304C5.89808 3.21304 6.14603 2.96311 6.14603 2.65736C6.14603 1.80434 6.83951 1.11184 7.69056 1.11184H8.30699C9.15903 1.11184 9.85152 1.80434 9.85152 2.65736C9.85152 2.96311 10.1005 3.21304 10.4072 3.21304C10.7149 3.21304 10.9629 2.96311 10.9629 2.65736C10.9629 1.19186 9.77151 0 8.306 0H7.69056C6.22506 0 5.03369 1.19186 5.03369 2.65736C5.03468 2.9636 5.28412 3.21304 5.59035 3.21304Z" fill="#2D2D2D"/>
<path d="M3.93964 10.9969C3.69169 10.9969 3.49115 11.197 3.49115 11.444V11.9389C3.49115 12.1858 3.69169 12.3859 3.93964 12.3859C4.18661 12.3859 4.38665 12.1858 4.38665 11.9389V11.444C4.38616 11.1975 4.18661 10.9969 3.93964 10.9969Z" fill="#2D2D2D"/>
<path d="M12.0609 10.9969C11.813 10.9969 11.6134 11.197 11.6134 11.444V11.9389C11.6134 12.1858 11.813 12.3859 12.0609 12.3859C12.3079 12.3859 12.5074 12.1858 12.5074 11.9389V11.444C12.5084 11.1975 12.3079 10.9969 12.0609 10.9969Z" fill="#2D2D2D"/>
</svg>
