<svg width="34" height="34" viewBox="0 0 34 34" fill="none" xmlns="http://www.w3.org/2000/svg">
<rect width="34" height="34" rx="12" fill="#C0F3AE"/>
<path d="M22.2207 10.2008L23.0926 10.0918C23.4828 10.0426 23.7606 9.6875 23.7148 9.29375C23.6691 8.93164 23.3738 8.63633 22.9168 8.67149L20.2941 8.99844C19.9039 9.04766 19.6262 9.40274 19.6719 9.79297L19.9953 12.4508C20.0445 12.841 20.3996 13.1223 20.7898 13.073C21.1801 13.0238 21.4613 12.6688 21.4121 12.275L21.2926 11.2871C23.757 13.1152 24.7801 16.2863 23.8344 19.2219C22.8887 22.1574 20.1113 24.1719 17.0422 24.1789C16.5887 24.1789 16.3004 24.4813 16.2898 24.875C16.2828 25.2688 16.5641 25.6063 17.0422 25.6063C20.7266 25.6063 24.0629 23.184 25.1949 19.6578C26.3199 16.1738 25.1246 12.4016 22.2207 10.2008Z" fill="#84BE70"/>
<path d="M14.0012 21.5457C13.952 21.1555 13.5969 20.8742 13.2066 20.9234C12.8164 20.9727 12.5352 21.3277 12.5844 21.7215L12.7039 22.7094C10.2395 20.8813 9.21641 17.7102 10.1621 14.7746C11.1078 11.8391 13.8852 9.82461 16.9543 9.81758C17.4078 9.81758 17.6961 9.51524 17.7066 9.12149C17.7137 8.72774 17.4324 8.39024 16.9543 8.39024C13.2734 8.38672 9.93711 10.809 8.80508 14.3352C7.68008 17.8262 8.87539 21.5984 11.7793 23.7992L10.9074 23.9082C10.5172 23.9574 10.2395 24.3125 10.2852 24.7063C10.3309 25.0684 10.6262 25.3637 11.0832 25.3285L13.7059 25.0016C14.0961 24.9524 14.3738 24.5973 14.3281 24.207L14.0012 21.5457Z" fill="#84BE70"/>
</svg>
