<svg width="16" height="16" viewBox="0 0 16 16" fill="none" xmlns="http://www.w3.org/2000/svg">
<path d="M1.43306 11.9153C0.508938 12.8394 0 14.0681 0 15.375V16H0.625C1.93191 16 3.16059 15.4911 4.08469 14.5669L5.04441 13.6073L2.39272 10.9556L1.43306 11.9153ZM3.20081 13.683C2.67834 14.2055 2.02503 14.5498 1.31481 14.6852C1.45022 13.9749 1.79444 13.3216 2.31694 12.7992L2.39275 12.7233L3.27662 13.6072L3.20081 13.683Z" fill="#2D2D2D"/>
<path d="M12.2814 3.71859C11.5503 2.9875 10.3608 2.9875 9.62972 3.71859C8.89866 4.44966 8.89866 5.63916 9.62972 6.37025C9.99525 6.73578 10.4754 6.91853 10.9555 6.91853C11.4357 6.91853 11.9158 6.73578 12.2813 6.37025C13.0124 5.63919 13.0124 4.44966 12.2814 3.71859ZM11.3975 5.48634C11.1538 5.73003 10.7573 5.73003 10.5136 5.48634C10.2699 5.24266 10.2699 4.84616 10.5136 4.60247C10.7573 4.35878 11.1538 4.35878 11.3975 4.60247C11.6412 4.84616 11.6412 5.24269 11.3975 5.48634Z" fill="#2D2D2D"/>
<path d="M15.375 0C13.6026 0 11.8737 0.343906 10.2362 1.02216C9.2167 1.44444 8.26389 1.98356 7.38739 2.63272L3.77917 1.91109C3.16314 1.78791 2.52995 1.97956 2.08564 2.42387L0.177734 4.33175L3.71327 6.09953L2.1167 7.69609L8.30389 13.8833L9.90045 12.2867L11.6682 15.8222L13.5761 13.9144C14.0204 13.4701 14.2121 12.837 14.0889 12.2208L13.3673 8.61266C14.0164 7.73616 14.5555 6.78331 14.9778 5.76384C15.6561 4.12631 16 2.39737 16 0.625V0L15.375 0ZM14.6055 2.50719L13.4928 1.39447C13.9017 1.33138 14.3155 1.28803 14.7335 1.2665C14.7119 1.68444 14.6686 2.09828 14.6055 2.50719ZM2.28795 3.98931L2.96952 3.30775C3.11761 3.15966 3.32864 3.09572 3.53402 3.13684L6.15955 3.66194C6.06527 3.751 5.97177 3.84106 5.87973 3.93306L4.64498 5.16781L2.28795 3.98931ZM6.53614 10.3477L9.1878 7.69606L8.30392 6.81219L5.65227 9.46384L3.88448 7.69606L6.76361 4.81694C8.25502 3.32553 10.0654 2.26909 12.0407 1.71019L14.2898 3.95922C13.7309 5.93453 12.6744 7.74494 11.183 9.23634L8.30389 12.1155L6.53614 10.3477ZM12.8632 12.466C12.9042 12.6713 12.8404 12.8824 12.6922 13.0305L12.0107 13.712L10.8322 11.355L12.0669 10.1202C12.1589 10.0282 12.249 9.93472 12.338 9.84044L12.8632 12.466Z" fill="#2D2D2D"/>
</svg>
