<svg width="976" height="262" viewBox="0 0 976 262" fill="none" xmlns="http://www.w3.org/2000/svg">
<path fill-rule="evenodd" clip-rule="evenodd" d="M741.351 0.5H744.322V2.42857H741.351V1.69643H741.851V1.23214H741.351V0.5ZM749.263 0.5H754.204L754.204 2.42857H749.263V0.5ZM759.145 0.5H764.087V2.42857H759.145V0.5ZM769.028 0.5H773.969V2.42857H769.028V0.5ZM778.91 0.5H783.851V2.42857H778.91V0.5ZM788.792 0.5H793.733L793.733 2.42857H788.792V0.5ZM798.674 0.5H803.616V2.42857H798.674V0.5ZM808.557 0.5H813.498V2.42857H808.557V0.5ZM818.439 0.5H823.38V2.42857H818.439V0.5ZM828.321 0.5H833.263L833.262 2.42857H828.321V0.5ZM838.204 0.5H843.145V2.42857H838.204V0.5ZM848.086 0.5H853.027V2.42857H848.086V0.5ZM857.968 0.5H862.909V2.42857H857.968V0.5ZM867.85 0.5H870.321C871.176 0.5 872.029 0.509955 872.879 0.529754L872.855 1.52948C872.855 1.52947 872.854 1.52946 872.854 1.52945L872.832 2.45779C871.998 2.43835 871.16 2.42857 870.321 2.42857H867.85V0.5ZM882.926 2.23634C882.928 2.2366 882.93 2.23686 882.932 2.23711L883.049 1.24397C881.369 1.04614 879.676 0.886987 877.972 0.767444L877.907 1.69389C877.906 1.69379 877.904 1.69369 877.903 1.6936L877.833 2.69114C879.506 2.8085 881.167 2.96475 882.817 3.15895L882.926 2.23634ZM892.886 3.8907C892.89 3.89144 892.893 3.89218 892.897 3.89292L893.107 2.91537C891.452 2.55852 889.782 2.23974 888.098 1.96002L887.946 2.87681C887.943 2.87634 887.94 2.87586 887.937 2.87539L887.773 3.86186C889.426 4.13645 891.065 4.44936 892.69 4.79963L892.886 3.8907ZM902.645 6.48734C902.649 6.48872 902.654 6.4901 902.658 6.49147L902.961 5.53857C901.346 5.02455 899.714 4.54764 898.066 4.10888L897.826 5.00792C897.822 5.00688 897.819 5.00584 897.815 5.0048L897.557 5.97115C899.175 6.40182 900.777 6.86993 902.363 7.37445L902.645 6.48734ZM912.11 10.0077C912.115 10.0098 912.12 10.012 912.125 10.0141L912.519 9.09476C910.959 8.42754 909.38 7.79616 907.783 7.2017L907.458 8.07489C907.453 8.07313 907.448 8.07138 907.444 8.06963L907.095 9.00686C908.663 9.59033 910.213 10.21 911.743 10.8649L912.11 10.0077ZM921.194 14.4218C921.199 14.4248 921.205 14.4278 921.21 14.4308L921.69 13.5535C920.201 12.7389 918.69 11.9585 917.158 11.2136L916.75 12.0529C916.745 12.0504 916.74 12.0478 916.734 12.0452L916.297 12.9446C917.801 13.6757 919.284 14.4416 920.745 15.2412L921.194 14.4218ZM929.81 19.6902C929.816 19.6941 929.821 19.6979 929.827 19.7018L930.39 18.875C928.986 17.9201 927.557 16.9978 926.104 16.1092L925.616 16.9069C925.61 16.9034 925.605 16.9 925.599 16.8966L925.077 17.7496C926.503 18.6218 927.906 19.527 929.284 20.4641L929.81 19.6902ZM937.878 25.7658C937.884 25.7705 937.889 25.7753 937.895 25.78L938.535 25.0114C937.229 23.9248 935.896 22.8688 934.536 21.8445L933.973 22.593C933.967 22.5887 933.961 22.5843 933.955 22.58L933.354 23.3787C934.688 24.384 935.997 25.4204 937.278 26.4868L937.878 25.7658ZM945.319 32.5948C945.325 32.6003 945.33 32.6058 945.336 32.6113L946.047 31.9085C944.853 30.6996 943.628 29.5192 942.375 28.3685L941.74 29.0604C941.734 29.0552 941.729 29.0501 941.723 29.0449L941.047 29.7816C942.277 30.9109 943.478 32.0693 944.651 33.2557L945.319 32.5948ZM948.841 36.2517C948.836 36.2459 948.831 36.2402 948.825 36.2344L948.081 36.9015C949.194 38.1448 950.277 39.415 951.328 40.711L952.06 40.1174C952.065 40.1234 952.069 40.1294 952.074 40.1354L952.851 39.5056C951.78 38.1849 950.677 36.8905 949.542 35.6236L948.841 36.2517ZM955.203 44.1034C955.199 44.0973 955.194 44.0912 955.19 44.0851L954.383 44.6757C955.368 46.0218 956.32 47.3924 957.238 48.7866L958.027 48.2671C958.031 48.2732 958.035 48.2793 958.039 48.2854L958.875 47.7355C957.939 46.3146 956.969 44.9177 955.965 43.5459L955.203 44.1034ZM960.758 52.5449C960.754 52.5389 960.75 52.5329 960.747 52.5269L959.885 53.0344C960.731 54.4708 961.542 55.9294 962.316 57.4092L963.156 56.9701C963.159 56.9759 963.162 56.9817 963.165 56.9874L964.051 56.5238C963.261 55.0155 962.435 53.5288 961.573 52.0648L960.758 52.5449ZM965.44 61.4984C965.438 61.493 965.435 61.4876 965.433 61.4821L964.524 61.9005C965.221 63.4134 965.881 64.9462 966.503 66.4976L967.383 66.1448C967.385 66.1498 967.387 66.1547 967.389 66.1597L968.318 65.7879C967.684 64.2064 967.012 62.644 966.301 61.1018L965.44 61.4984ZM969.195 70.878C969.194 70.8736 969.192 70.8693 969.191 70.8649L968.245 71.189C968.784 72.7634 969.285 74.3551 969.746 75.963L970.659 75.7012C970.66 75.7049 970.661 75.7086 970.662 75.7124L971.623 75.4369C971.154 73.7977 970.643 72.1751 970.093 70.5702L969.195 70.878ZM971.977 80.5901C971.977 80.5871 971.976 80.5841 971.975 80.5811L971.001 80.8072C971.377 82.4267 971.713 84.061 972.007 85.7091L972.944 85.5417C972.944 85.5439 972.944 85.5462 972.945 85.5484L973.929 85.3723C973.629 83.6922 973.286 82.0262 972.903 80.3752L971.977 80.5901ZM973.755 90.5348C973.755 90.5332 973.755 90.5318 973.755 90.5303L972.763 90.656C972.972 92.3036 973.14 93.9635 973.266 95.6348L974.215 95.5632C974.215 95.564 974.215 95.5648 974.215 95.5656L975.212 95.4903C975.083 93.7867 974.912 92.0947 974.699 90.4151L973.755 90.5348ZM974.468 100.61L973.517 100.633C973.538 101.467 973.548 102.304 973.548 103.143C973.548 103.982 973.538 104.819 973.517 105.653L974.468 105.676L974.517 105.678L975.468 105.701C975.489 104.851 975.5 103.998 975.5 103.143C975.5 102.288 975.489 101.435 975.468 100.585L974.517 100.608L974.468 100.61ZM973.755 115.751C973.755 115.752 973.755 115.754 973.755 115.755L972.763 115.63C972.972 113.982 973.14 112.322 973.266 110.651L974.215 110.723C974.215 110.722 974.215 110.721 974.215 110.72L975.212 110.795C975.083 112.499 974.912 114.191 974.699 115.871L973.755 115.751ZM971.977 125.696C971.977 125.699 971.976 125.702 971.975 125.705L971.001 125.478C971.377 123.859 971.713 122.225 972.007 120.577L972.944 120.744C972.944 120.742 972.944 120.74 972.945 120.737L973.929 120.913C973.629 122.593 973.286 124.26 972.903 125.911L971.977 125.696ZM969.195 135.408C969.194 135.412 969.192 135.416 969.191 135.421L968.245 135.097C968.784 133.522 969.285 131.931 969.746 130.323L970.659 130.584C970.66 130.581 970.661 130.577 970.662 130.573L971.623 130.849C971.154 132.488 970.643 134.111 970.093 135.715L969.195 135.408ZM965.44 144.787C965.438 144.793 965.435 144.798 965.433 144.804L964.524 144.385C965.221 142.872 965.881 141.34 966.503 139.788L967.383 140.141C967.385 140.136 967.387 140.131 967.389 140.126L968.318 140.498C967.684 142.079 967.012 143.642 966.301 145.184L965.44 144.787ZM960.758 153.741C960.754 153.747 960.75 153.753 960.747 153.759L959.885 153.251C960.731 151.815 961.542 150.356 962.316 148.877L963.155 149.316C963.159 149.31 963.161 149.304 963.165 149.298L964.051 149.762C963.261 151.27 962.435 152.757 961.573 154.221L960.758 153.741ZM955.203 162.182C955.199 162.188 955.194 162.195 955.19 162.201L954.383 161.61C955.368 160.264 956.32 158.893 957.238 157.499L958.027 158.019C958.031 158.012 958.035 158.006 958.039 158L958.875 158.55C957.939 159.971 956.969 161.368 955.965 162.74L955.203 162.182ZM948.841 170.034C948.836 170.04 948.831 170.046 948.825 170.051L948.081 169.384C949.194 168.141 950.277 166.871 951.328 165.575L952.06 166.168C952.065 166.162 952.069 166.156 952.074 166.15L952.851 166.78C951.78 168.101 950.677 169.395 949.542 170.662L948.841 170.034ZM941.74 177.225C941.734 177.23 941.729 177.236 941.723 177.241L941.047 176.504C942.277 175.375 943.478 174.216 944.651 173.03L945.319 173.691C945.325 173.685 945.33 173.68 945.336 173.674L946.047 174.377C944.853 175.586 943.628 176.766 942.375 177.917L941.74 177.225ZM933.973 183.693C933.967 183.697 933.961 183.701 933.955 183.706L933.354 182.907C934.688 181.902 935.997 180.865 937.278 179.799L937.878 180.52C937.884 180.515 937.889 180.51 937.895 180.506L938.535 181.274C937.229 182.361 935.896 183.417 934.536 184.441L933.973 183.693ZM925.616 189.379C925.61 189.382 925.605 189.386 925.599 189.389L925.077 188.536C926.503 187.664 927.906 186.759 929.284 185.822L929.81 186.596C929.816 186.592 929.821 186.588 929.827 186.584L930.39 187.411C928.986 188.366 927.557 189.288 926.104 190.176L925.616 189.379ZM916.75 194.233C916.745 194.235 916.74 194.238 916.734 194.24L916.297 193.341C917.801 192.61 919.284 191.844 920.745 191.044L921.194 191.864C921.199 191.861 921.205 191.858 921.21 191.855L921.69 192.732C920.201 193.547 918.69 194.327 917.158 195.072L916.75 194.233ZM907.458 198.211C907.453 198.213 907.448 198.214 907.444 198.216L907.095 197.279C908.663 196.695 910.213 196.076 911.743 195.421L912.11 196.278C912.115 196.276 912.12 196.274 912.125 196.272L912.519 197.191C910.959 197.858 909.38 198.49 907.783 199.084L907.458 198.211ZM897.826 201.278C897.822 201.279 897.819 201.28 897.815 201.281L897.557 200.315C899.175 199.884 900.777 199.416 902.363 198.911L902.645 199.798C902.649 199.797 902.654 199.796 902.658 199.794L902.961 200.747C901.346 201.261 899.714 201.738 898.066 202.177L897.826 201.278ZM887.946 203.409C887.943 203.409 887.94 203.41 887.937 203.41L887.773 202.424C889.426 202.149 891.065 201.836 892.69 201.486L892.886 202.395C892.89 202.394 892.893 202.394 892.897 202.393L893.107 203.37C891.452 203.727 889.782 204.046 888.098 204.326L887.946 203.409ZM877.907 204.592C877.906 204.592 877.904 204.592 877.903 204.592L877.833 203.595C879.506 203.477 881.167 203.321 882.817 203.127L882.926 204.049C882.928 204.049 882.93 204.049 882.932 204.049L883.049 205.042C881.369 205.24 879.676 205.399 877.972 205.518L877.907 204.592ZM872.854 204.756L872.832 203.828C871.997 203.847 871.16 203.857 870.321 203.857H867.828V204.857L867.828 205.786H870.321C871.176 205.786 872.028 205.776 872.879 205.756L872.855 204.756C872.855 204.756 872.854 204.756 872.854 204.756ZM92.3301 203.884C93.1329 203.866 93.938 203.857 94.7452 203.857H97.2283V204.786L97.2292 205.786H94.7452C93.8841 205.786 93.0255 205.796 92.1695 205.816L92.1457 204.817C92.2139 204.815 92.2822 204.814 92.3505 204.812L92.3301 203.884ZM102.196 203.857H107.164V204.786L107.165 205.786H102.197V204.857L102.196 203.857ZM112.132 203.857H117.101V204.786L117.101 205.786H112.133V204.857L112.132 203.857ZM122.069 203.857H127.037V204.786L127.037 205.786H122.069V204.857L122.069 203.857ZM132.005 203.857H136.973V204.786L136.974 205.786H132.006V204.857L132.005 203.857ZM141.941 203.857H146.909V204.786L146.91 205.786H141.942V204.857L141.941 203.857ZM151.877 203.857H156.845V204.786L156.846 205.786H151.878V204.857L151.877 203.857ZM161.813 203.857H166.781V204.786L166.782 205.786H161.814V204.857L161.813 203.857ZM171.749 203.857H176.718V204.786L176.718 205.786H171.75V204.857L171.749 203.857ZM181.686 203.857H186.654V204.786L186.654 205.786H181.686V204.857L181.686 203.857ZM191.622 203.857H196.59V204.786L196.59 205.786H191.622V204.857L191.622 203.857ZM201.558 203.857H206.526V204.786L206.526 205.786H201.558V204.857L201.558 203.857ZM211.494 203.857H216.462V204.786L216.462 205.786H211.494V204.857L211.494 203.857ZM226.398 203.857V204.786L226.398 205.786H221.43V204.857L221.43 203.857H226.398ZM229.741 204.857V203.857H236.334L236.335 205.786H229.742L229.741 204.857ZM239.711 204.857V203.857H246.271L246.271 205.786H239.712L239.711 204.857ZM249.681 204.857V203.857H256.207L256.207 205.786H249.682L249.681 204.857ZM259.651 204.857V203.857H266.143L266.143 205.786H259.652L259.651 204.857ZM269.621 204.857V203.857H276.079L276.079 205.786H269.622L269.621 204.857ZM279.591 204.857V203.857H286.015L286.015 205.786H279.592L279.591 204.857ZM289.562 204.857V203.857H295.951L295.951 205.786H289.562L289.562 204.857ZM299.532 204.857V203.857H305.887L305.887 205.786H299.532L299.532 204.857ZM309.502 204.857V203.857H315.823L315.823 205.786H309.503L309.502 204.857ZM319.472 204.857V203.857H325.759L325.759 205.786H319.473L319.472 204.857ZM329.442 204.857V203.857H335.696L335.695 205.786H329.443L329.442 204.857ZM339.412 204.857V203.857H345.632L345.632 205.786H339.413L339.412 204.857ZM349.382 204.857V203.857H355.568L355.568 205.786H349.383L349.382 204.857ZM359.352 204.857V203.857H365.504L365.504 205.786H359.353L359.352 204.857ZM369.323 204.857V203.857H375.44L375.44 205.786H369.323L369.323 204.857ZM379.293 204.857V203.857H385.376L385.376 205.786H379.293L379.293 204.857ZM389.263 204.857V203.857H395.312L395.312 205.786H389.263L389.263 204.857ZM399.233 204.857V203.857H405.248L405.248 205.786H399.233L399.233 204.857ZM409.203 204.857V203.857H415.184L415.184 205.786H409.203L409.203 204.857ZM419.173 204.857V203.857H425.12L425.12 205.786H419.174L419.173 204.857ZM429.143 204.857V203.857H435.056V205.786H429.144L429.143 204.857ZM439.113 204.857V203.857H444.993L444.993 205.786H439.114L439.113 204.857ZM449.084 204.857V203.857H454.929L454.929 205.786H449.084L449.084 204.857ZM459.054 204.857V203.857H464.865V205.786H459.054L459.054 204.857ZM469.024 205.786L469.024 203.857H474.801L474.801 205.786H469.024ZM478.994 205.786L478.994 203.857H484.737L484.737 205.786H478.994ZM488.964 205.786L488.964 203.857H494.673L494.673 205.786H488.964ZM498.934 205.786L498.934 203.857H504.609V205.786H498.934ZM508.904 205.786L508.904 203.857H514.545L514.545 205.786H508.904ZM518.875 205.786L518.874 203.857H524.481L524.481 205.786H518.875ZM528.845 205.786L528.844 203.857H534.417V205.786H528.845ZM538.815 205.786L538.815 203.857H544.354V205.786H538.815ZM548.785 205.786L548.785 203.857H554.29L554.29 205.786H548.785ZM558.755 205.786L558.755 203.857H564.226V205.786H558.755ZM568.725 205.786L568.725 203.857H574.162V205.786H568.725ZM578.695 205.786L578.695 203.857H584.098V205.786H578.695ZM588.665 205.786L588.665 203.857H594.034L594.034 205.786H588.665ZM598.635 205.786L598.635 203.857H603.97V205.786H598.635ZM608.605 205.786L608.605 203.857H613.906V205.786H608.605ZM618.575 205.786L618.575 203.857H623.842L623.842 205.786H618.575ZM628.546 205.786L628.545 203.857H633.778L633.779 205.786H628.546ZM638.516 205.786L638.515 203.857H643.715L643.715 205.786H638.516ZM648.486 205.786L648.486 203.857H653.651L653.651 205.786H648.486ZM658.456 205.786L658.456 203.857H663.587L663.587 205.786H658.456ZM668.426 205.786L668.426 203.857H673.523L673.523 205.786H668.426ZM678.396 205.786L678.396 203.857H683.459L683.459 205.786H678.396ZM688.366 205.786L688.366 203.857H693.395V204.786L693.396 205.786H688.366ZM698.336 204.857V203.857H703.331V204.786L703.332 205.786H698.336L698.336 204.857ZM708.299 203.857H713.291V204.786L713.292 205.786H708.3V204.857L708.299 203.857ZM718.235 203.857H723.261V204.786L723.262 205.786H718.236V204.857L718.235 203.857ZM728.171 203.857H733.231V204.786L733.232 205.786H728.172V204.857L728.171 203.857ZM738.107 203.857H743.201V204.786L743.202 205.786H738.108V204.857L738.107 203.857ZM748.044 203.857H753.172V204.786L753.172 205.786H748.044V204.857L748.044 203.857ZM757.98 203.857H763.142V204.786L763.142 205.786H757.981V204.857L757.98 203.857ZM767.916 203.857H773.112V203.891C773.246 203.894 773.379 203.897 773.513 203.901L773.487 204.829C773.496 204.83 773.505 204.83 773.513 204.83L773.485 205.83C772.46 205.8 771.432 205.786 770.4 205.786H767.917V204.857L767.916 203.857ZM778.097 204.857V203.857H783.082V204.596L783.271 204.617V205.297H783.082V205.764H783.271V206.56L782.714 206.495C781.695 206.377 780.672 206.273 779.644 206.184L779.679 205.786H778.097L778.097 204.857ZM788.067 204.857V203.857H793.052V204.786L793.053 205.786H788.068L788.067 204.857ZM798.037 204.857V203.857H803.022V204.786L803.023 205.786H798.038L798.037 204.857ZM808.007 204.857V203.857H812.992V204.786L812.993 205.786H808.008L808.007 204.857ZM817.977 204.857V203.857H822.962V204.786L822.963 205.786H817.978L817.977 204.857ZM827.947 204.857V203.857H832.932V204.786L832.933 205.786H827.948L827.947 204.857ZM837.917 204.857V203.857H842.902V204.786L842.903 205.786H837.918L837.917 204.857ZM847.887 204.857V203.857H852.872V204.786L852.873 205.786H847.888L847.887 204.857ZM857.857 204.857V203.857H862.843V204.786L862.843 205.786H857.858L857.857 204.857ZM82.7094 204.522C84.3004 204.345 85.9022 204.203 87.5139 204.096L87.58 205.094C87.3754 205.107 87.171 205.121 86.9667 205.136L87.0335 206.062C85.3138 206.186 83.6058 206.351 81.9107 206.557L81.7905 205.564C82.1305 205.523 82.471 205.483 82.812 205.445L82.7094 204.522ZM73.1812 206.016C74.7508 205.697 76.3332 205.412 77.9276 205.162L78.0825 206.15C77.6091 206.224 77.1367 206.302 76.6654 206.382L76.8219 207.298C75.1245 207.588 73.4414 207.919 71.7736 208.288L71.5571 207.312C72.1583 207.179 72.7614 207.051 73.3664 206.928L73.1812 206.016ZM63.8268 208.364C65.3629 207.903 66.9139 207.476 68.479 207.084L68.7224 208.054C67.99 208.237 67.2607 208.429 66.5347 208.628L66.7805 209.525C65.1216 209.979 63.4795 210.473 61.8555 211.006L61.544 210.055C62.3892 209.778 63.2393 209.512 64.094 209.255L63.8268 208.364ZM54.725 211.549C56.2129 210.951 57.7178 210.385 59.239 209.853L59.5693 210.797C58.5975 211.137 57.6324 211.491 56.6742 211.858L57.0077 212.728C55.4029 213.343 53.8177 213.997 52.2532 214.687L51.8495 213.772C52.9144 213.302 53.9889 212.849 55.0725 212.414L54.725 211.549ZM45.9477 215.549C47.3762 214.818 48.824 214.117 50.2902 213.449L50.7049 214.359C49.5177 214.9 48.3427 215.462 47.1804 216.045L47.599 216.88C46.0636 217.65 44.5506 218.457 43.0611 219.299L42.5689 218.429C43.8207 217.721 45.0891 217.038 46.3732 216.38L45.9477 215.549ZM37.5723 220.331C38.9291 219.472 40.3074 218.643 41.7063 217.844L42.2022 218.713C40.8301 219.496 39.4781 220.309 38.147 221.151L38.6471 221.942C37.1961 222.86 35.7703 223.813 34.3707 224.799L33.8314 224.033C32.6274 224.881 31.4428 225.754 30.2783 226.65L29.6684 225.858C30.9412 224.878 32.2377 223.927 33.557 223.004L34.0935 223.772C35.3978 222.859 36.7245 221.976 38.0727 221.122L37.5723 220.331ZM30.2409 227.865C28.8887 228.923 27.5645 230.012 26.2693 231.133L25.6551 230.424C24.75 231.207 23.859 232.005 22.9824 232.818L22.3024 232.084C23.4806 230.992 24.6847 229.926 25.9137 228.887L26.5194 229.603C27.5375 228.742 28.5729 227.9 29.6249 227.078L30.2409 227.865ZM22.4654 234.595C21.226 235.782 20.017 236.998 18.8399 238.243L18.1561 237.597C17.5233 238.266 16.8996 238.944 16.2852 239.63L15.5404 238.962C16.6133 237.765 17.7142 236.592 18.8421 235.445L19.5126 236.104C20.2547 235.349 21.0086 234.605 21.774 233.873L22.4654 234.595ZM15.4022 242.069C14.2887 243.373 13.2082 244.705 12.1622 246.063L11.4149 245.488C11.0211 245.999 10.6321 246.514 10.2481 247.032L9.44447 246.437C10.4017 245.145 11.389 243.875 12.4054 242.629L13.1358 243.224C13.6309 242.617 14.1329 242.016 14.6418 241.42L15.4022 242.069ZM9.12902 250.216C8.15388 251.626 7.21435 253.06 6.31166 254.519L5.50772 254.021C5.31328 254.335 5.12053 254.651 4.92949 254.967L4.07354 254.45C4.90564 253.072 5.76976 251.715 6.66489 250.38L7.44954 250.906C7.73215 250.484 8.01788 250.065 8.3067 249.647L9.12902 250.216ZM3.71882 258.96C3.30597 259.711 2.90259 260.467 2.50885 261.229L2.3691 261.5H1.79845V260.862L1.66747 260.795C1.59304 260.939 1.51895 261.083 1.4452 261.227L1.2661 261.136V261.5H0.183105L0.554636 260.773C0.920702 260.056 1.2951 259.344 1.67772 258.637L2.51029 259.087C2.62035 258.884 2.7311 258.681 2.84253 258.478L3.71882 258.96Z" fill="#E4E4F1"/>
</svg>
