<svg width="12" height="18" viewBox="0 0 12 18" fill="none" xmlns="http://www.w3.org/2000/svg">
<path d="M7.74454 0.0484482C7.49053 -0.0402074 7.20877 -0.00163066 6.98888 0.151967C6.76887 0.305602 6.63814 0.555025 6.63814 0.821029V4.63815H4.97859V0.821066C4.97859 0.555062 4.84786 0.305564 4.62785 0.152004C4.40792 -0.00166802 4.12612 -0.0402821 3.87219 0.0484855C1.55617 0.857066 0 3.03085 0 5.4576C0 7.47576 1.04744 9.30456 2.76591 10.3445V14.9939C2.76591 16.6508 4.13077 17.9986 5.8084 17.9986C7.48603 17.9986 8.85089 16.6508 8.85089 14.994V10.3444C10.5693 9.30448 11.6168 7.47576 11.6168 5.45763C11.6168 3.03085 10.0606 0.857066 7.74454 0.0484482ZM7.65181 9.12836C7.36968 9.2668 7.19134 9.5511 7.19134 9.86222V14.994C7.19134 15.7471 6.57095 16.3597 5.8084 16.3597C5.04586 16.3597 4.42547 15.747 4.42547 14.9939V9.86226C4.42547 9.55118 4.24705 9.26695 3.96507 9.1284C2.54299 8.43047 1.65959 7.02386 1.65959 5.45756C1.65959 4.14726 2.29458 2.94017 3.31915 2.17947V5.45763C3.31915 5.91017 3.69068 6.27708 4.14892 6.27708H7.468C7.92624 6.27708 8.29777 5.91017 8.29777 5.45763V2.17951C9.32226 2.94021 9.95733 4.14726 9.95733 5.45767C9.95725 7.02386 9.07381 8.43044 7.65181 9.12836Z" fill="#9191B2"/>
</svg>
