<svg width="16" height="16" viewBox="0 0 16 16" fill="none" xmlns="http://www.w3.org/2000/svg">
<path d="M2.15506 9.18051C0.966781 9.18051 0 10.1473 0 11.3356V13.8449C0 15.0332 0.966781 16 2.15509 16C3.34341 16 4.31016 15.0332 4.31016 13.8449V11.3356C4.31016 10.1473 3.34337 9.18051 2.15506 9.18051ZM3.06013 13.8449C3.06013 14.344 2.65412 14.75 2.15506 14.75C1.65603 14.75 1.25 14.344 1.25 13.8449V11.3356C1.25 10.8365 1.65603 10.4305 2.15509 10.4305C2.65416 10.4305 3.06016 10.8365 3.06013 11.3356V13.8449Z" fill="#2D2D2D"/>
<path d="M8 0C6.81169 0 5.84491 0.966781 5.84491 2.15509V13.8449C5.84491 15.0332 6.81169 16 8 16C9.18831 16 10.1551 15.0332 10.1551 13.8449V2.15509C10.1551 0.966781 9.18831 0 8 0ZM8.90509 13.8449C8.90509 14.344 8.49906 14.75 8 14.75C7.50094 14.75 7.09491 14.344 7.09491 13.8449V2.15509C7.09491 1.656 7.50094 1.25 8 1.25C8.49906 1.25 8.90509 1.656 8.90509 2.15509V13.8449Z" fill="#2D2D2D"/>
<path d="M13.8449 4.59024C12.6566 4.59024 11.6898 5.55702 11.6898 6.74533V13.8449C11.6898 15.0332 12.6566 16 13.8449 16C15.0332 16 16 15.0332 16 13.8449V6.74533C16 5.55702 15.0332 4.59024 13.8449 4.59024ZM14.75 13.8449C14.75 14.344 14.3439 14.75 13.8449 14.75C13.3458 14.75 12.9398 14.344 12.9398 13.8449V6.74533C12.9398 6.24624 13.3458 5.84024 13.8449 5.84024C14.3439 5.84024 14.75 6.24624 14.75 6.74533V13.8449Z" fill="#2D2D2D"/>
</svg>
