<svg width="34" height="34" viewBox="0 0 34 34" fill="none" xmlns="http://www.w3.org/2000/svg">
<rect width="34" height="34" rx="12" fill="#FFE3AD"/>
<path d="M24.7234 10.4894H9.27659C8.56085 10.4894 8 11.0502 8 11.766V22.7234C8 23.4392 8.56085 24 9.27659 24H24.7234C25.4392 24 26 23.4392 26 22.7234V11.766C26 11.0502 25.4392 10.4894 24.7234 10.4894ZM24.7234 22.7234H9.27659L9.26682 11.7668C9.26682 11.7668 9.26981 11.766 9.27659 11.766H24.7234V22.7234Z" fill="#C6A158"/>
<path d="M25.3617 14.9787H8.63831V16.2553H25.3617V14.9787Z" fill="#C6A158"/>
<path d="M18.617 15.617V17.9787H15.3829V15.617H14.1064V18.617C14.1064 18.9695 14.3921 19.2553 14.7447 19.2553H19.2553C19.6081 19.2553 19.8936 18.9695 19.8936 18.617V15.617H18.617Z" fill="#C6A158"/>
<path d="M19.4043 7.99998H14.5957C13.7745 7.99998 13.1064 8.66806 13.1064 9.48934V11.1276H14.383V9.48934C14.383 9.37403 14.4804 9.27658 14.5957 9.27658H19.4042C19.5196 9.27658 19.617 9.37403 19.617 9.48934V11.1276H20.8936V9.48934C20.8936 8.66809 20.2253 7.99998 19.4043 7.99998Z" fill="#C6A158"/>
</svg>
