<svg width="34" height="34" viewBox="0 0 34 34" fill="none" xmlns="http://www.w3.org/2000/svg">
<rect width="34" height="34" rx="12" fill="#FFD3D3"/>
<g clip-path="url(#clip0)">
<path d="M25.6486 17.8701C25.1204 16.9942 24.3376 16.3093 23.4258 15.8844C24.4874 14.7421 24.4567 12.9638 23.3328 11.8589C22.1768 10.7224 20.2957 10.7224 19.1397 11.8589C18.6798 12.3111 18.4036 12.8762 18.3097 13.4644C17.4884 13.069 16.519 13.069 15.6978 13.4644C15.6038 12.8762 15.3277 12.3111 14.8675 11.8589C13.7116 10.7224 11.8306 10.7224 10.6747 11.8589C9.55079 12.9638 9.51985 14.7421 10.5817 15.8844C9.66966 16.3093 8.88685 16.994 8.35866 17.8701C7.95029 18.5473 7.9441 19.3617 8.34197 20.0483C8.74379 20.7415 9.46735 21.1553 10.2773 21.1553H12.2815C12.2857 21.5164 12.3826 21.8775 12.5746 22.2087C12.9764 22.902 13.6998 23.3158 14.5098 23.3158H19.4977C20.3077 23.3158 21.031 22.902 21.4328 22.2087C21.6248 21.8775 21.7218 21.5164 21.7259 21.1553H23.7301C24.5403 21.1553 25.2637 20.7415 25.6655 20.0483C26.0633 19.3615 26.057 18.5471 25.6486 17.8701ZM24.395 19.337C24.2566 19.5757 24.0082 19.7182 23.7301 19.7182H21.2107C20.6941 18.9912 19.9936 18.4177 19.1932 18.0449C19.4453 17.7735 19.6357 17.4663 19.7645 17.1406C20.2225 16.9422 20.723 16.8344 21.2362 16.8344C22.5245 16.8344 23.7333 17.512 24.391 18.603C24.5887 18.9305 24.4597 19.2255 24.395 19.337ZM20.1586 20.7635C20.3562 21.091 20.2272 21.3857 20.1625 21.4974C20.0242 21.7361 19.7755 21.8786 19.4975 21.8786H14.5098C14.2317 21.8786 13.9833 21.7361 13.8449 21.4974C13.7802 21.3857 13.6512 21.091 13.8487 20.7635C14.5066 19.6726 15.7154 18.9949 17.0037 18.9949C18.2918 18.9949 19.5007 19.6726 20.1586 20.7635ZM9.61229 19.337C9.5476 19.2255 9.4186 18.9305 9.61622 18.603C10.274 17.5122 11.483 16.8344 12.7711 16.8344C13.2843 16.8344 13.7847 16.9422 14.2428 17.1406C14.3716 17.4663 14.5619 17.7735 14.8141 18.0449C14.0137 18.4177 13.3132 18.9912 12.7966 19.7182H10.2772C9.99929 19.7182 9.75066 19.5757 9.61229 19.337ZM11.7083 12.8751C12.0014 12.587 12.3862 12.4431 12.7711 12.4431C13.156 12.4431 13.5408 12.587 13.8338 12.8751C14.4198 13.4511 14.4198 14.3884 13.8338 14.9644C13.2479 15.5406 12.2945 15.5406 11.7083 14.9644C11.1224 14.3884 11.1224 13.4511 11.7083 12.8751ZM20.1734 12.8751C20.4665 12.587 20.8514 12.4431 21.2362 12.4431C21.6211 12.4431 22.006 12.587 22.2989 12.8751C22.8848 13.4511 22.8848 14.3884 22.2989 14.9644C21.713 15.5406 20.7595 15.5406 20.1736 14.9644C19.5875 14.3884 19.5875 13.4511 20.1734 12.8751ZM18.0665 17.1249C17.4803 17.7011 16.5269 17.7009 15.941 17.1249C15.355 16.5489 15.355 15.6116 15.941 15.0356C16.2338 14.7475 16.6188 14.6035 17.0037 14.6035C17.3885 14.6035 17.7734 14.7475 18.0665 15.0356C18.6524 15.6116 18.6524 16.5489 18.0665 17.1249Z" fill="#D17777"/>
</g>
<defs>
<clipPath id="clip0">
<rect width="18" height="12.3158" fill="white" transform="translate(8 11)"/>
</clipPath>
</defs>
</svg>
