<svg width="16" height="16" viewBox="0 0 16 16" fill="none" xmlns="http://www.w3.org/2000/svg">
<path d="M2.35291 2.35295H3.29409V3.29413H2.35291V2.35295Z" fill="#2D2D2D"/>
<path d="M2.35291 12.7059H3.29409V13.6471H2.35291V12.7059Z" fill="#2D2D2D"/>
<path d="M16 10.3529V5.64706H14.5589C14.3266 3.7925 12.74 2.35294 10.8235 2.35294H5.60762C5.3829 1.01926 4.22011 0 2.82353 0C1.26664 0 0 1.26664 0 2.82353C0 4.38042 1.26664 5.64706 2.82353 5.64706C4.22011 5.64706 5.3829 4.6278 5.60762 3.29412H10.8235C12.2201 3.29412 13.3829 4.31338 13.6076 5.64706H11.2941V7.52941H5.64706C3.97845 7.52941 2.5958 8.77653 2.38184 10.3876C1.03401 10.6003 0 11.7698 0 13.1765C0 14.7334 1.26664 16 2.82353 16C4.22011 16 5.3829 14.9807 5.60762 13.6471H10.6286L10.0202 14.2555L10.6857 14.921L12.4302 13.1765L10.6857 11.432L10.0202 12.0975L10.6286 12.7059H5.60762C5.41092 11.5384 4.49528 10.6119 3.33321 10.3992C3.53365 9.30369 4.49459 8.47059 5.64706 8.47059H11.2941V10.3529H16ZM2.82353 4.70588C1.7856 4.70588 0.941177 3.86146 0.941177 2.82353C0.941177 1.7856 1.7856 0.941177 2.82353 0.941177C3.86146 0.941177 4.70588 1.7856 4.70588 2.82353C4.70588 3.86146 3.86146 4.70588 2.82353 4.70588ZM4.70588 13.1765C4.70588 14.2144 3.86146 15.0588 2.82353 15.0588C1.7856 15.0588 0.941177 14.2144 0.941177 13.1765C0.941177 12.1385 1.7856 11.2941 2.82353 11.2941C3.86146 11.2941 4.70588 12.1385 4.70588 13.1765ZM12.2353 6.58824H15.0588V9.41177H12.2353V6.58824Z" fill="#2D2D2D"/>
<path d="M13.1765 7.52941H14.1176V8.47058H13.1765V7.52941Z" fill="#2D2D2D"/>
</svg>
