<svg width="34" height="34" viewBox="0 0 34 34" fill="none" xmlns="http://www.w3.org/2000/svg">
<rect width="34" height="34" rx="12" fill="#F4F4F8"/>
<g clip-path="url(#clip0)">
<path d="M16.7867 27C16.7823 27 16.778 27 16.7736 27C15.7146 26.993 14.82 26.0763 14.82 24.9981V16.99C14.82 16.2299 15.2512 15.5569 15.9453 15.2338C16.6377 14.9115 17.4281 15.0106 18.0138 15.4918L24.357 20.1967C24.3733 20.2088 24.3891 20.2216 24.4043 20.2351C24.9718 20.7377 25.1617 21.5042 24.8998 22.2354C24.621 23.0141 23.9173 23.5367 23.1071 23.5669C23.0986 23.5672 23.09 23.5674 23.0815 23.5674L20.1268 23.5699L18.3182 26.1749C18.3162 26.1778 18.3141 26.1808 18.312 26.1837C17.9289 26.7179 17.4017 27 16.7867 27ZM16.7837 16.4544C16.6699 16.4544 16.5782 16.4901 16.5387 16.5086C16.4447 16.5523 16.2262 16.6868 16.2262 16.9901V24.9981C16.2262 25.337 16.52 25.5921 16.7828 25.5938C16.8927 25.594 17.0149 25.5777 17.1665 25.3681L19.1812 22.4662C19.3125 22.2771 19.528 22.1642 19.7582 22.164L23.065 22.1612C23.3417 22.146 23.5129 21.9373 23.5759 21.7614C23.6216 21.634 23.6422 21.4531 23.4895 21.304L17.1606 16.6097C17.1491 16.6012 17.1378 16.5923 17.1269 16.5831C17.0091 16.484 16.8872 16.4544 16.7837 16.4544ZM13.5348 21.8963C13.7248 21.5577 13.6045 21.1291 13.2659 20.939C11.4924 19.9431 10.3906 18.0624 10.3906 16.0308C10.3906 12.9294 12.9138 10.4062 16.0152 10.4062C19.1167 10.4062 21.6399 12.9294 21.6399 16.0308C21.6399 16.4191 21.9546 16.7339 22.343 16.7339C22.7313 16.7339 23.046 16.4191 23.046 16.0308C23.046 12.154 19.892 9 16.0152 9C12.1385 9 8.98444 12.154 8.98444 16.0308C8.98444 18.5701 10.3612 20.9207 12.5775 22.1651C12.6863 22.2262 12.8045 22.2552 12.921 22.2552C13.167 22.2553 13.4058 22.126 13.5348 21.8963Z" fill="#9191B2"/>
</g>
<defs>
<clipPath id="clip0">
<rect width="18" height="18" fill="white" transform="translate(8 9)"/>
</clipPath>
</defs>
</svg>
