<svg width="16" height="16" viewBox="0 0 16 16" fill="none" xmlns="http://www.w3.org/2000/svg">
<path d="M15.3747 4.40797C15.7199 4.40797 15.9996 4.1282 15.9996 3.78306V3.12691C15.9996 1.40273 14.5969 0 12.8727 0C12.8727 0 3.07701 0.00146853 3.05286 0.00431186C2.22832 0.0331201 1.43628 0.386943 0.86537 0.985166C0.280175 1.59833 -0.0249045 2.39583 0.00381003 3.23493C0.00262271 3.25083 0.0019978 12.2482 0.0019978 12.2482C0.0019978 14.3169 1.68506 16 3.75382 16H12.8727C14.5969 16 15.9996 14.5973 15.9996 12.8731V8.12854C15.9996 6.40436 14.5969 5.00163 12.8727 5.00163H3.1265C2.12318 5.00163 1.30062 4.21744 1.25384 3.21634C1.23007 2.70729 1.41319 2.22136 1.76945 1.84804C2.13087 1.46934 2.63845 1.25219 3.162 1.25219C3.18046 1.25219 12.8727 1.24981 12.8727 1.24981C13.9077 1.24981 14.7497 2.09188 14.7497 3.12691V3.78306C14.7498 4.1282 15.0296 4.40797 15.3747 4.40797ZM3.1265 6.25145H12.8727C13.9077 6.25145 14.7498 7.09351 14.7498 8.12854V12.8731C14.7498 13.9081 13.9077 14.7502 12.8727 14.7502H3.75382C2.37421 14.7502 1.25181 13.6278 1.25181 12.2482V5.62907C1.77448 6.02058 2.42392 6.25145 3.1265 6.25145ZM13.5 10.5008C13.5 10.9322 13.1503 11.2819 12.7189 11.2819C11.6827 11.2408 11.683 9.76068 12.7189 9.71968C13.1503 9.71968 13.5 10.0694 13.5 10.5008ZM13.5 3.12691C13.5 2.78177 13.2202 2.502 12.8751 2.502H3.12653C2.29741 2.535 2.29803 3.7191 3.12653 3.75182H12.8751C13.2202 3.75182 13.5 3.47205 13.5 3.12691Z" fill="#2D2D2D"/>
</svg>
